  0
SECTION
  2
HEADER
  9
$ACADVER
  1
AC1015
  9
$ACADMAINTVER
 70
     6
  9
$DWGCODEPAGE
  3
ANSI_1252
  9
$INSBASE
 10
0.0
 20
0.0
 30
0.0
  9
$EXTMIN
 10
-18.9765660614
 20
-18.9765660614
 30
0.0
  9
$EXTMAX
 10
55.0
 20
35.8993473504
 30
0.0
  9
$LIMMIN
 10
0.0
 20
0.0
  9
$LIMMAX
 10
420.0
 20
297.0
  9
$ORTHOMODE
 70
     0
  9
$REGENMODE
 70
     1
  9
$FILLMODE
 70
     1
  9
$QTEXTMODE
 70
     0
  9
$MIRRTEXT
 70
     1
  9
$LTSCALE
 40
1.0
  9
$ATTMODE
 70
     1
  9
$TEXTSIZE
 40
3.5
  9
$TRACEWID
 40
1.0
  9
$TEXTSTYLE
  7
Standard
  9
$CLAYER
  8
0
  9
$CELTYPE
  6
ByLayer
  9
$CECOLOR
 62
   256
  9
$CELTSCALE
 40
1.0
  9
$DISPSILH
 70
     0
  9
$DIMSCALE
 40
1.0
  9
$DIMASZ
 40
3.302
  9
$DIMEXO
 40
1.0
  9
$DIMDLI
 40
3.75
  9
$DIMRND
 40
0.0
  9
$DIMDLE
 40
0.0
  9
$DIMEXE
 40
1.0
  9
$DIMTP
 40
0.0
  9
$DIMTM
 40
0.0
  9
$DIMTXT
 40
3.5
  9
$DIMCEN
 40
2.5
  9
$DIMTSZ
 40
0.0
  9
$DIMTOL
 70
     0
  9
$DIMLIM
 70
     0
  9
$DIMTIH
 70
     1
  9
$DIMTOH
 70
     1
  9
$DIMSE1
 70
     0
  9
$DIMSE2
 70
     0
  9
$DIMTAD
 70
     1
  9
$DIMZIN
 70
     0
  9
$DIMBLK
  1

  9
$DIMASO
 70
     1
  9
$DIMSHO
 70
     1
  9
$DIMPOST
  1

  9
$DIMAPOST
  1

  9
$DIMALT
 70
     0
  9
$DIMALTD
 70
     3
  9
$DIMALTF
 40
0.0393700787
  9
$DIMLFAC
 40
1.0
  9
$DIMTOFL
 70
     1
  9
$DIMTVP
 40
0.0
  9
$DIMTIX
 70
     0
  9
$DIMSOXD
 70
     0
  9
$DIMSAH
 70
     0
  9
$DIMBLK1
  1

  9
$DIMBLK2
  1

  9
$DIMSTYLE
  2
ISO-25
  9
$DIMCLRD
 70
     0
  9
$DIMCLRE
 70
     0
  9
$DIMCLRT
 70
     0
  9
$DIMTFAC
 40
1.0
  9
$DIMGAP
 40
1.524
  9
$DIMJUST
 70
     0
  9
$DIMSD1
 70
     0
  9
$DIMSD2
 70
     0
  9
$DIMTOLJ
 70
     0
  9
$DIMTZIN
 70
     0
  9
$DIMALTZ
 70
     0
  9
$DIMALTTZ
 70
     0
  9
$DIMUPT
 70
     0
  9
$DIMDEC
 70
     2
  9
$DIMTDEC
 70
     2
  9
$DIMALTU
 70
     2
  9
$DIMALTTD
 70
     3
  9
$DIMTXSTY
  7
Standard
  9
$DIMAUNIT
 70
     0
  9
$DIMADEC
 70
     2
  9
$DIMALTRND
 40
0.0
  9
$DIMAZIN
 70
     0
  9
$DIMDSEP
 70
    44
  9
$DIMATFIT
 70
     3
  9
$DIMFRAC
 70
     0
  9
$DIMLDRBLK
  1

  9
$DIMLUNIT
 70
     2
  9
$DIMLWD
 70
    -2
  9
$DIMLWE
 70
    -2
  9
$DIMTMOVE
 70
     0
  9
$LUNITS
 70
     2
  9
$LUPREC
 70
     2
  9
$SKETCHINC
 40
1.0
  9
$FILLETRAD
 40
10.0
  9
$AUNITS
 70
     0
  9
$AUPREC
 70
     2
  9
$MENU
  1
.
  9
$ELEVATION
 40
0.0
  9
$PELEVATION
 40
0.0
  9
$THICKNESS
 40
0.0
  9
$LIMCHECK
 70
     0
  9
$CHAMFERA
 40
0.0
  9
$CHAMFERB
 40
0.0
  9
$CHAMFERC
 40
0.0
  9
$CHAMFERD
 40
0.0
  9
$SKPOLY
 70
     0
  9
$TDCREATE
 40
2457312.664314305
  9
$TDUCREATE
 40
2457312.205980972
  9
$TDUPDATE
 40
2457312.664354271
  9
$TDUUPDATE
 40
2457312.206020937
  9
$TDINDWG
 40
0.0000000116
  9
$TDUSRTIMER
 40
0.0000000116
  9
$USRTIMER
 70
     1
  9
$ANGBASE
 50
0.0
  9
$ANGDIR
 70
     0
  9
$PDMODE
 70
     0
  9
$PDSIZE
 40
-1.0
  9
$PLINEWID
 40
0.0
  9
$SPLFRAME
 70
     0
  9
$SPLINETYPE
 70
     6
  9
$SPLINESEGS
 70
     8
  9
$HANDSEED
  5
D8
  9
$SURFTAB1
 70
     6
  9
$SURFTAB2
 70
     6
  9
$SURFTYPE
 70
     6
  9
$SURFU
 70
     6
  9
$SURFV
 70
     6
  9
$UCSBASE
  2

  9
$UCSNAME
  2

  9
$UCSORG
 10
0.0
 20
0.0
 30
0.0
  9
$UCSXDIR
 10
1.0
 20
0.0
 30
0.0
  9
$UCSYDIR
 10
0.0
 20
1.0
 30
0.0
  9
$UCSORTHOREF
  2

  9
$UCSORTHOVIEW
 70
     0
  9
$UCSORGTOP
 10
0.0
 20
0.0
 30
0.0
  9
$UCSORGBOTTOM
 10
0.0
 20
0.0
 30
0.0
  9
$UCSORGLEFT
 10
0.0
 20
0.0
 30
0.0
  9
$UCSORGRIGHT
 10
0.0
 20
0.0
 30
0.0
  9
$UCSORGFRONT
 10
0.0
 20
0.0
 30
0.0
  9
$UCSORGBACK
 10
0.0
 20
0.0
 30
0.0
  9
$PUCSBASE
  2

  9
$PUCSNAME
  2

  9
$PUCSORG
 10
0.0
 20
0.0
 30
0.0
  9
$PUCSXDIR
 10
1.0
 20
0.0
 30
0.0
  9
$PUCSYDIR
 10
0.0
 20
1.0
 30
0.0
  9
$PUCSORTHOREF
  2

  9
$PUCSORTHOVIEW
 70
     0
  9
$PUCSORGTOP
 10
0.0
 20
0.0
 30
0.0
  9
$PUCSORGBOTTOM
 10
0.0
 20
0.0
 30
0.0
  9
$PUCSORGLEFT
 10
0.0
 20
0.0
 30
0.0
  9
$PUCSORGRIGHT
 10
0.0
 20
0.0
 30
0.0
  9
$PUCSORGFRONT
 10
0.0
 20
0.0
 30
0.0
  9
$PUCSORGBACK
 10
0.0
 20
0.0
 30
0.0
  9
$USERI1
 70
     0
  9
$USERI2
 70
     0
  9
$USERI3
 70
     0
  9
$USERI4
 70
     0
  9
$USERI5
 70
     0
  9
$USERR1
 40
0.0
  9
$USERR2
 40
0.0
  9
$USERR3
 40
0.0
  9
$USERR4
 40
0.0
  9
$USERR5
 40
0.0
  9
$WORLDVIEW
 70
     1
  9
$SHADEDGE
 70
     3
  9
$SHADEDIF
 70
    70
  9
$TILEMODE
 70
     1
  9
$MAXACTVP
 70
    64
  9
$PINSBASE
 10
0.0
 20
0.0
 30
0.0
  9
$PLIMCHECK
 70
     0
  9
$PEXTMIN
 10
1.0000000000E+20
 20
1.0000000000E+20
 30
1.0000000000E+20
  9
$PEXTMAX
 10
-1.0000000000E+20
 20
-1.0000000000E+20
 30
-1.0000000000E+20
  9
$PLIMMIN
 10
0.0
 20
0.0
  9
$PLIMMAX
 10
420.0
 20
297.0
  9
$UNITMODE
 70
     0
  9
$VISRETAIN
 70
     1
  9
$PLINEGEN
 70
     0
  9
$PSLTSCALE
 70
     1
  9
$TREEDEPTH
 70
  3020
  9
$CMLSTYLE
  2
Standard
  9
$CMLJUST
 70
     0
  9
$CMLSCALE
 40
20.0
  9
$PROXYGRAPHICS
 70
     1
  9
$MEASUREMENT
 70
     1
  9
$CELWEIGHT
370
    -1
  9
$ENDCAPS
280
     0
  9
$JOINSTYLE
280
     0
  9
$LWDISPLAY
290
     1
  9
$INSUNITS
 70
     4
  9
$HYPERLINKBASE
  1

  9
$STYLESHEET
  1

  9
$XEDIT
290
     1
  9
$CEPSNTYPE
380
     0
  9
$PSTYLEMODE
290
     1
  9
$FINGERPRINTGUID
  2
{21F32163-DA41-4C2B-9C34-3AB1265075BE}
  9
$VERSIONGUID
  2
{FAEB1C32-E019-11D5-929B-00C0DF256EC4}
  9
$EXTNAMES
290
     1
  9
$PSVPSCALE
 40
0.0
  9
$OLESTARTUP
290
     0
  0
ENDSEC
  0
SECTION
  2
CLASSES
  0
CLASS
  1
ACDBDICTIONARYWDFLT
  2
AcDbDictionaryWithDefault
  3
ObjectDBX Classes
 90
        0
280
     0
281
     0
  0
CLASS
  1
VISUALSTYLE
  2
AcDbVisualStyle
  3
ObjectDBX Classes
 90
     4095
280
     0
281
     0
  0
CLASS
  1
MATERIAL
  2
AcDbMaterial
  3
ObjectDBX Classes
 90
     1153
280
     0
281
     0
  0
CLASS
  1
SCALE
  2
AcDbScale
  3
ObjectDBX Classes
 90
     1153
280
     0
281
     0
  0
CLASS
  1
SUN
  2
AcDbSun
  3
SCENEOE
 90
     1153
280
     0
281
     0
  0
CLASS
  1
ACDBPLACEHOLDER
  2
AcDbPlaceHolder
  3
ObjectDBX Classes
 90
        0
280
     0
281
     0
  0
CLASS
  1
LAYOUT
  2
AcDbLayout
  3
ObjectDBX Classes
 90
        0
280
     0
281
     0
  0
ENDSEC
  0
SECTION
  2
TABLES
  0
TABLE
  2
VPORT
  5
8
330
0
100
AcDbSymbolTable
 70
     1
  0
VPORT
  5
29
330
8
100
AcDbSymbolTableRecord
100
AcDbViewportTableRecord
  2
*Active
 70
     0
 10
0.0
 20
0.0
 11
1.0
 21
1.0
 12
18.0117169693
 22
8.4613906445
 13
0.0
 23
0.0
 14
10.0
 24
10.0
 15
10.0
 25
10.0
 16
0.0
 26
0.0
 36
1.0
 17
0.0
 27
0.0
 37
0.0
 40
55.9734316801
 41
1.348069881
 42
50.0
 43
0.0
 44
0.0
 50
0.0
 51
0.0
 71
     0
 72
   100
 73
     1
 74
     3
 75
     0
 76
     0
 77
     0
 78
     0
281
     0
 65
     1
110
0.0
120
0.0
130
0.0
111
1.0
121
0.0
131
0.0
112
0.0
122
1.0
132
0.0
 79
     0
146
0.0
  0
ENDTAB
  0
TABLE
  2
LTYPE
  5
5
330
0
100
AcDbSymbolTable
 70
     6
  0
LTYPE
  5
14
330
5
100
AcDbSymbolTableRecord
100
AcDbLinetypeTableRecord
  2
ByBlock
 70
     0
  3

 72
    65
 73
     0
 40
0.0
  0
LTYPE
  5
15
330
5
100
AcDbSymbolTableRecord
100
AcDbLinetypeTableRecord
  2
ByLayer
 70
     0
  3

 72
    65
 73
     0
 40
0.0
  0
LTYPE
  5
16
330
5
100
AcDbSymbolTableRecord
100
AcDbLinetypeTableRecord
  2
Continuous
 70
     0
  3
Solid line
 72
    65
 73
     0
 40
0.0
  0
LTYPE
  5
6A
330
5
100
AcDbSymbolTableRecord
100
AcDbLinetypeTableRecord
  2
HIDDEN
 70
     0
  3
Hidden __ __ __ __ __ __ __ __ __ __ __ __ __ __
 72
    65
 73
     2
 40
1.905
 49
1.27
 74
     0
 49
-0.635
 74
     0
  0
LTYPE
  5
6B
330
5
100
AcDbSymbolTableRecord
100
AcDbLinetypeTableRecord
  2
PHANTOM
 70
     0
  3
Phantom ______  __  __  ______  __  __  ______
 72
    65
 73
     6
 40
12.7
 49
6.35
 74
     0
 49
-1.27
 74
     0
 49
1.27
 74
     0
 49
-1.27
 74
     0
 49
1.27
 74
     0
 49
-1.27
 74
     0
  0
LTYPE
  5
6C
330
5
100
AcDbSymbolTableRecord
100
AcDbLinetypeTableRecord
  2
CENTER
 70
     0
  3
Center ____ _ ____ _ ____ _ ____ _ ____ _ ____
 72
    65
 73
     4
 40
10.16
 49
6.35
 74
     0
 49
-1.27
 74
     0
 49
1.27
 74
     0
 49
-1.27
 74
     0
  0
LTYPE
  5
6D
330
5
100
AcDbSymbolTableRecord
100
AcDbLinetypeTableRecord
  2
CENTERX2
 70
     0
  3
Center (2x) ________  __  ________  __  _____
 72
    65
 73
     4
 40
20.32
 49
12.7
 74
     0
 49
-2.54
 74
     0
 49
2.54
 74
     0
 49
-2.54
 74
     0
  0
LTYPE
  5
6E
330
5
100
AcDbSymbolTableRecord
100
AcDbLinetypeTableRecord
  2
DOT2
 70
     0
  3
Dot (.5x) ........................................
 72
    65
 73
     2
 40
0.635
 49
0.0
 74
     0
 49
-0.635
 74
     0
  0
ENDTAB
  0
TABLE
  2
LAYER
  5
2
330
0
100
AcDbSymbolTable
 70
     1
  0
LAYER
  5
10
330
2
100
AcDbSymbolTableRecord
100
AcDbLayerTableRecord
  2
0
 70
     0
 62
     7
  6
Continuous
370
    -3
390
F
  0
ENDTAB
  0
TABLE
  2
STYLE
  5
3
330
0
100
AcDbSymbolTable
 70
     1
  0
STYLE
  5
11
330
3
100
AcDbSymbolTableRecord
100
AcDbTextStyleTableRecord
  2
Standard
 70
     0
 40
0.0
 41
1.0
 50
0.0
 71
     0
 42
3.5
  3
txt
  4

  0
ENDTAB
  0
TABLE
  2
VIEW
  5
6
330
0
100
AcDbSymbolTable
 70
     0
  0
ENDTAB
  0
TABLE
  2
UCS
  5
7
330
0
100
AcDbSymbolTable
 70
     0
  0
ENDTAB
  0
TABLE
  2
APPID
  5
9
330
0
100
AcDbSymbolTable
 70
     1
  0
APPID
  5
12
330
9
100
AcDbSymbolTableRecord
100
AcDbRegAppTableRecord
  2
ACAD
 70
     0
  0
ENDTAB
  0
TABLE
  2
DIMSTYLE
  5
A
330
0
100
AcDbSymbolTable
 70
     1
100
AcDbDimStyleTable
  0
DIMSTYLE
105
27
330
A
100
AcDbSymbolTableRecord
100
AcDbDimStyleTableRecord
  2
ISO-25
 70
     0
 41
2.5
 42
0.625
 43
3.75
 44
1.25
 73
     0
 74
     0
 77
     1
 78
     8
140
2.5
141
2.5
143
0.0393700787
147
0.625
171
     3
172
     1
178
     0
271
     2
272
     2
274
     3
278
    44
283
     0
284
     8
340
11
  0
ENDTAB
  0
TABLE
  2
BLOCK_RECORD
  5
1
330
0
100
AcDbSymbolTable
 70
     1
  0
BLOCK_RECORD
  5
1F
330
1
100
AcDbSymbolTableRecord
100
AcDbBlockTableRecord
  2
*Model_Space
340
22
  0
BLOCK_RECORD
  5
1B
330
1
100
AcDbSymbolTableRecord
100
AcDbBlockTableRecord
  2
*Paper_Space
340
1E
  0
BLOCK_RECORD
  5
23
330
1
100
AcDbSymbolTableRecord
100
AcDbBlockTableRecord
  2
*Paper_Space0
340
26
  0
ENDTAB
  0
ENDSEC
  0
SECTION
  2
BLOCKS
  0
BLOCK
  5
20
330
1F
100
AcDbEntity
  8
0
100
AcDbBlockBegin
  2
*Model_Space
 70
     0
 10
0.0
 20
0.0
 30
0.0
  3
*Model_Space
  1
*Model_Space
  0
ENDBLK
  5
21
330
1F
100
AcDbEntity
  8
0
100
AcDbBlockEnd
  0
BLOCK
  5
1C
330
1B
100
AcDbEntity
 67
     1
  8
0
100
AcDbBlockBegin
  2
*Paper_Space
 70
     0
 10
0.0
 20
0.0
 30
0.0
  3
*Paper_Space
  1
*Paper_Space
  0
ENDBLK
  5
1D
330
1B
100
AcDbEntity
 67
     1
  8
0
100
AcDbBlockEnd
  0
BLOCK
  5
24
330
23
100
AcDbEntity
  8
0
100
AcDbBlockBegin
  2
*Paper_Space0
 70
     0
 10
0.0
 20
0.0
 30
0.0
  3
*Paper_Space0
  1
*Paper_Space0
  0
ENDBLK
  5
25
330
23
100
AcDbEntity
  8
0
100
AcDbBlockEnd
  0
ENDSEC
  0
SECTION
  2
ENTITIES
  0
LINE
  5
6F
330
1F
100
AcDbEntity
  8
0
  6
Continuous
 62
     7
370
    15
100
AcDbLine
 10
52.8284271247
 20
-3.0
 30
0.0
 11
17.1896728934
 21
-3.0
 31
0.0
  0
ARC
  5
70
330
1F
100
AcDbEntity
  8
0
  6
Continuous
 62
     7
370
    15
100
AcDbCircle
 10
52.8284271247
 20
-1.0
 30
0.0
 40
2.0
100
AcDbArc
 50
270.0
 51
340.5287793655
  0
ARC
  5
71
330
1F
100
AcDbEntity
  8
0
  6
Continuous
 62
     7
370
    15
100
AcDbCircle
 10
50.0
 20
0.0
 30
0.0
 40
5.000000000000001
100
AcDbArc
 50
340.5287793655
 51
90.0
  0
LINE
  5
72
330
1F
100
AcDbEntity
  8
0
  6
Continuous
 62
     7
370
    15
100
AcDbLine
 10
50.0
 20
5.0
 30
0.0
 11
17.1896728934
 21
5.0
 31
0.0
  0
SPLINE
  5
73
330
1F
100
AcDbEntity
  8
0
  6
Continuous
 62
     7
370
    15
100
AcDbSpline
210
0.0
220
0.0
230
1.0
 70
     8
 71
     3
 72
    11
 73
     7
 74
     0
 42
0.000000001
 43
0.00000001
 40
0.0323453817718666
 40
0.0323453817718666
 40
0.0323453817718666
 40
0.0323453817718666
 40
0.1910182875950168
 40
0.2762943093751701
 40
0.3547482498533902
 40
0.4046597498060827
 40
0.4046597498060827
 40
0.4046597498060827
 40
0.4046597498060827
 10
18.12893816585747
 20
5.851845946238427
 30
0.0
 10
18.00503788883466
 20
5.720820117456852
 30
0.0
 10
17.80860773998045
 20
5.524961858591038
 30
0.0
 10
17.53619132480974
 20
5.279824136561305
 30
0.0
 10
17.34974928918146
 20
5.124219313932977
 30
0.0
 10
17.23481624248647
 20
5.034346703803176
 30
0.0
 10
17.18967289336022
 20
5.000000000000001
 30
0.0
  0
ARC
  5
74
330
1F
100
AcDbEntity
  8
0
  6
Continuous
 62
     7
370
    15
100
AcDbCircle
 10
0.0
 20
0.0
 30
0.0
 40
19.04999999999988
100
AcDbArc
 50
17.8895776897
 51
20.6818508818
  0
SPLINE
  5
75
330
1F
100
AcDbEntity
  8
0
  6
Continuous
 62
     7
370
    15
100
AcDbSpline
210
0.0
220
0.0
230
1.0
 70
     8
 71
     3
 72
    27
 73
    23
 74
     0
 42
0.000000001
 43
0.00000001
 40
0.0
 40
0.0
 40
0.0
 40
0.0
 40
0.0659735702910813
 40
0.1082952230326797
 40
0.1438476379623052
 40
0.1759621024725138
 40
0.2071390505872402
 40
0.2389417311331459
 40
0.2498612960436302
 40
0.2609839469428024
 40
0.2723311692310569
 40
0.2870924364631913
 40
0.3177918106828519
 40
0.3553132651013895
 40
0.3996568001287957
 40
0.4508224160110649
 40
0.5088101129073723
 40
0.5736198909266226
 40
0.6452517501466098
 40
0.7237056906248298
 40
0.8089817124049832
 40
0.9676546182281336
 40
0.9676546182281336
 40
0.9676546182281336
 40
0.9676546182281336
 10
14.64880560381812
 20
6.899967436991777
 30
0.0
 10
14.68161261027629
 20
6.832732793321213
 30
0.0
 10
14.7623901765484
 20
6.73375634528557
 30
0.0
 10
14.90832677654345
 20
6.655267467710463
 30
0.0
 10
15.03017155957451
 20
6.623891837351349
 30
0.0
 10
15.1425899500598
 20
6.615318650481621
 30
0.0
 10
15.2507212695256
 20
6.621223818792758
 30
0.0
 10
15.33380148992303
 20
6.634339406923412
 30
0.0
 10
15.39362976674544
 20
6.647190171821675
 30
0.0
 10
15.43052364378045
 20
6.656085529071317
 30
0.0
 10
15.47134446771624
 20
6.667222726120412
 30
0.0
 10
15.53353128164155
 20
6.684564509329894
 30
0.0
 10
15.62524461483765
 20
6.706642823071395
 30
0.0
 10
15.75061088570089
 20
6.732203614828842
 30
0.0
 10
15.89981070808536
 20
6.756822421585124
 30
0.0
 10
16.07289271346625
 20
6.778846206622615
 30
0.0
 10
16.26984681106997
 20
6.796491496795912
 30
0.0
 10
16.49055238522901
 20
6.808015620679394
 30
0.0
 10
16.73479546058286
 20
6.811665991763552
 30
0.0
 10
17.00226296506804
 20
6.805703722615559
 30
0.0
 10
17.36808756452603
 20
6.783896190710316
 30
0.0
 10
17.64377846601879
 20
6.753240232416022
 30
0.0
 10
17.82234087130715
 20
6.728050673629433
 30
0.0
  0
ARC
  5
76
330
1F
100
AcDbEntity
  8
0
  6
Continuous
 62
     7
370
    15
100
AcDbCircle
 10
0.0
 20
0.0
 30
0.0
 40
16.1925
100
AcDbArc
 50
25.2216520052
 51
26.2069194234
  0
SPLINE
  5
77
330
1F
100
AcDbEntity
  8
0
  6
Continuous
 62
     7
370
    15
100
AcDbSpline
210
0.0
220
0.0
230
1.0
 70
     8
 71
     3
 72
    27
 73
    23
 74
     0
 42
0.000000001
 43
0.00000001
 40
0.0323453817718659
 40
0.0323453817718659
 40
0.0323453817718659
 40
0.0323453817718659
 40
0.1910182875950168
 40
0.2762943093751701
 40
0.3547482498533902
 40
0.4263801090733774
 40
0.4911898870926277
 40
0.5491775839889351
 40
0.6003431998712043
 40
0.6446867348986105
 40
0.6822081893171481
 40
0.7129075635368087
 40
0.7276688307689431
 40
0.7390160530571976
 40
0.7501387039563698
 40
0.7610582688668541
 40
0.7928609494127598
 40
0.8240378975274862
 40
0.8561523620376948
 40
0.8917047769673203
 40
0.9340264297089187
 40
1.0
 40
1.0
 40
1.0
 40
1.0
 10
16.3722496107872
 20
9.739196203079022
 30
0.0
 10
16.28061176218349
 20
9.583885060022546
 30
0.0
 10
16.13268908995737
 20
9.349227556442713
 30
0.0
 10
15.92165099792492
 20
9.049617593778434
 30
0.0
 10
15.7595492262768
 20
8.83678566422494
 30
0.0
 10
15.60441218458289
 20
8.64810470768235
 30
0.0
 10
15.4577945870215
 20
8.482735315165243
 30
0.0
 10
15.32120007235662
 20
8.339752059531365
 30
0.0
 10
15.19606631861105
 20
8.218162704045007
 30
0.0
 10
15.0837939927324
 20
8.116863160672587
 30
0.0
 10
14.98564516963939
 20
8.034784756260231
 30
0.0
 10
14.91120132093427
 20
7.976845988465446
 30
0.0
 10
14.85887012456648
 20
7.939038804521383
 30
0.0
 10
14.82471134585962
 20
7.914067728009478
 30
0.0
 10
14.79475371943171
 20
7.890769097962224
 30
0.0
 10
14.74740426639893
 20
7.852005788460771
 30
0.0
 10
14.68535041653336
 20
7.795228492028477
 30
0.0
 10
14.61331479509004
 20
7.714369834449507
 30
0.0
 10
14.54992586248099
 20
7.621132302976981
 30
0.0
 10
14.49848733844854
 20
7.506307830072974
 30
0.0
 10
14.4688624321456
 20
7.34327298702506
 30
0.0
 10
14.49588134645319
 20
7.218407736661979
 30
0.0
 10
14.52799267363121
 20
7.150838071507264
 30
0.0
  0
ARC
  5
78
330
1F
100
AcDbEntity
  8
0
  6
Continuous
 62
     7
370
    15
100
AcDbCircle
 10
0.0
 20
0.0
 30
0.0
 40
19.04999999999988
100
AcDbArc
 50
30.7467205468
 51
33.538993739
  0
SPLINE
  5
79
330
1F
100
AcDbEntity
  8
0
  6
Continuous
 62
     7
370
    15
100
AcDbSpline
210
0.0
220
0.0
230
1.0
 70
     8
 71
     3
 72
    27
 73
    23
 74
     0
 42
0.000000001
 43
0.00000001
 40
0.0
 40
0.0
 40
0.0
 40
0.0
 40
0.0659735702910813
 40
0.1082952230326797
 40
0.1438476379623052
 40
0.1759621024725138
 40
0.2071390505872402
 40
0.2389417311331459
 40
0.2498612960436302
 40
0.2609839469428024
 40
0.2723311692310569
 40
0.2870924364631913
 40
0.3177918106828519
 40
0.3553132651013895
 40
0.3996568001287957
 40
0.4508224160110649
 40
0.5088101129073723
 40
0.5736198909266226
 40
0.6452517501466098
 40
0.7237056906248298
 40
0.8089817124049832
 40
0.9676546182281341
 40
0.9676546182281341
 40
0.9676546182281341
 40
0.9676546182281341
 10
12.74614226494008
 20
9.986636751775253
 30
0.0
 10
12.79308784695508
 20
9.928388066712607
 30
0.0
 10
12.89386448264844
 20
9.849867864363633
 30
0.0
 10
13.05360756573572
 20
9.805820815349149
 30
0.0
 10
13.17937918023743
 20
9.802344852467527
 30
0.0
 10
13.29088672051332
 20
9.819002058536533
 30
0.0
 10
13.39499293847382
 20
9.848820654146653
 30
0.0
 10
13.47307167136927
 20
9.88009449533604
 30
0.0
 10
13.52854036417396
 20
9.905936108763768
 30
0.0
 10
13.56252983148093
 20
9.92281810081037
 30
0.0
 10
13.59984893264517
 20
9.94275955294406
 30
0.0
 10
13.65661768351437
 20
9.97350440935642
 30
0.0
 10
13.74111868497254
 20
10.01543731023596
 30
0.0
 10
13.85765395042873
 20
10.06825385925687
 30
0.0
 10
13.99763482189162
 20
10.12545550495129
 30
0.0
 10
14.16147654681806
 20
10.18544147720463
 30
0.0
 10
14.34956614754122
 20
10.24647077285842
 30
0.0
 10
14.5621738133534
 20
10.30681757338711
 30
0.0
 10
14.79948092089006
 20
10.36472561928698
 30
0.0
 10
15.06156918631359
 20
10.41842995557568
 30
0.0
 10
15.42307443165475
 20
10.47857281556105
 30
0.0
 10
15.69867477912559
 20
10.51003246302869
 30
0.0
 10
15.87836545625467
 20
10.52520833226636
 30
0.0
  0
ARC
  5
7A
330
1F
100
AcDbEntity
  8
0
  6
Continuous
 62
     7
370
    15
100
AcDbCircle
 10
0.0
 20
0.0
 30
0.0
 40
16.1925
100
AcDbArc
 50
38.0787948623
 51
39.0640622806
  0
SPLINE
  5
7B
330
1F
100
AcDbEntity
  8
0
  6
Continuous
 62
     7
370
    15
100
AcDbSpline
210
0.0
220
0.0
230
1.0
 70
     8
 71
     3
 72
    27
 73
    23
 74
     0
 42
0.000000001
 43
0.00000001
 40
0.0323453817718652
 40
0.0323453817718652
 40
0.0323453817718652
 40
0.0323453817718652
 40
0.1910182875950168
 40
0.2762943093751701
 40
0.3547482498533902
 40
0.4263801090733774
 40
0.4911898870926277
 40
0.5491775839889351
 40
0.6003431998712043
 40
0.6446867348986105
 40
0.6822081893171481
 40
0.7129075635368087
 40
0.7276688307689431
 40
0.7390160530571976
 40
0.7501387039563698
 40
0.7610582688668541
 40
0.7928609494127598
 40
0.8240378975274862
 40
0.8561523620376948
 40
0.8917047769673203
 40
0.9340264297089187
 40
1.0
 40
1.0
 40
1.0
 40
1.0
 10
13.79458809567131
 20
13.13818249495546
 30
0.0
 10
13.73980777986201
 20
12.96637398685979
 30
0.0
 10
13.64781004472069
 20
12.70468394563983
 30
0.0
 10
13.50873260697933
 20
12.36562543693125
 30
0.0
 10
13.39805462492542
 20
12.12205861058292
 30
0.0
 10
13.28879265543435
 20
11.90358704014343
 30
0.0
 10
13.18264921882541
 20
11.70973831881416
 30
0.0
 10
13.08129618141145
 20
11.53994481294552
 30
0.0
 10
12.98635596907078
 20
11.39355907670475
 30
0.0
 10
12.8994398138067
 20
11.26981638156774
 30
0.0
 10
12.82201594983301
 20
11.16795568633741
 30
0.0
 10
12.76233115256212
 20
11.09490424967569
 30
0.0
 10
12.71972489842678
 20
11.04640018407681
 30
0.0
 10
12.69197913888675
 20
11.01445414124747
 30
0.0
 10
12.66795704561748
 20
10.98507345748695
 30
0.0
 10
12.63042039006278
 20
10.93674578057427
 30
0.0
 10
12.58255649680013
 20
10.86758372887653
 30
0.0
 10
12.5303197027866
 20
10.77272293289955
 30
0.0
 10
12.48926736564568
 20
10.66771769651739
 30
0.0
 10
12.46466936175665
 20
10.54432596447267
 30
0.0
 10
12.47206587924858
 20
10.37878658350818
 30
0.0
 10
12.52619250509339
 20
10.26306423971386
 30
0.0
 10
12.57253439925379
 20
10.20433412965198
 30
0.0
  0
ARC
  5
7C
330
1F
100
AcDbEntity
  8
0
  6
Continuous
 62
     7
370
    15
100
AcDbCircle
 10
0.0
 20
0.0
 30
0.0
 40
19.04999999999988
100
AcDbArc
 50
43.6038634039
 51
46.3961365961
  0
SPLINE
  5
7D
330
1F
100
AcDbEntity
  8
0
  6
Continuous
 62
     7
370
    15
100
AcDbSpline
210
0.0
220
0.0
230
1.0
 70
     8
 71
     3
 72
    27
 73
    23
 74
     0
 42
0.000000001
 43
0.00000001
 40
0.0
 40
0.0
 40
0.0
 40
0.0
 40
0.0659735702910813
 40
0.1082952230326797
 40
0.1438476379623052
 40
0.1759621024725138
 40
0.2071390505872402
 40
0.2389417311331459
 40
0.2498612960436302
 40
0.2609839469428024
 40
0.2723311692310569
 40
0.2870924364631913
 40
0.3177918106828519
 40
0.3553132651013895
 40
0.3996568001287957
 40
0.4508224160110649
 40
0.5088101129073723
 40
0.5736198909266226
 40
0.6452517501466098
 40
0.7237056906248298
 40
0.8089817124049832
 40
0.9676546182281324
 40
0.9676546182281324
 40
0.9676546182281324
 40
0.9676546182281324
 10
10.20433412964287
 20
12.57253439926118
 30
0.0
 10
10.26306423970478
 20
12.52619250510082
 30
0.0
 10
10.37878658349915
 20
12.4720658792561
 30
0.0
 10
10.54432596446365
 20
12.46466936176429
 30
0.0
 10
10.66771769650834
 20
12.4892673656534
 30
0.0
 10
10.77272293289048
 20
12.5303197027944
 30
0.0
 10
10.86758372886742
 20
12.582556496808
 30
0.0
 10
10.93674578056512
 20
12.6304203900707
 30
0.0
 10
10.98507345747778
 20
12.66795704562544
 30
0.0
 10
11.01445414123828
 20
12.69197913889473
 30
0.0
 10
11.0464001840676
 20
12.71972489843478
 30
0.0
 10
11.09490424966645
 20
12.76233115257016
 30
0.0
 10
11.16795568632812
 20
12.8220159498411
 30
0.0
 10
11.26981638155839
 20
12.89943981381486
 30
0.0
 10
11.39355907669534
 20
12.98635596907903
 30
0.0
 10
11.53994481293605
 20
13.08129618141981
 30
0.0
 10
11.70973831880461
 20
13.18264921883389
 30
0.0
 10
11.90358704013381
 20
13.28879265544298
 30
0.0
 10
12.12205861057321
 20
13.3980546249342
 30
0.0
 10
12.36562543692146
 20
13.50873260698828
 30
0.0
 10
12.70468394562995
 20
13.6478100447299
 30
0.0
 10
12.96637398684983
 20
13.7398077798714
 30
0.0
 10
13.13818249494546
 20
13.79458809568083
 30
0.0
  0
ARC
  5
7E
330
1F
100
AcDbEntity
  8
0
  6
Continuous
 62
     7
370
    15
100
AcDbCircle
 10
0.0
 20
0.0
 30
0.0
 40
16.1925
100
AcDbArc
 50
50.9359377195
 51
51.9212051377
  0
SPLINE
  5
7F
330
1F
100
AcDbEntity
  8
0
  6
Continuous
 62
     7
370
    15
100
AcDbSpline
210
0.0
220
0.0
230
1.0
 70
     8
 71
     3
 72
    27
 73
    23
 74
     0
 42
0.000000001
 43
0.00000001
 40
0.0323453817718655
 40
0.0323453817718655
 40
0.0323453817718655
 40
0.0323453817718655
 40
0.1910182875950168
 40
0.2762943093751701
 40
0.3547482498533902
 40
0.4263801090733774
 40
0.4911898870926277
 40
0.5491775839889351
 40
0.6003431998712043
 40
0.6446867348986105
 40
0.6822081893171481
 40
0.7129075635368087
 40
0.7276688307689431
 40
0.7390160530571976
 40
0.7501387039563698
 40
0.7610582688668541
 40
0.7928609494127598
 40
0.8240378975274862
 40
0.8561523620376948
 40
0.8917047769673203
 40
0.9340264297089187
 40
1.0
 40
1.0
 40
1.0
 40
1.0
 10
10.52520833225486
 20
15.87836545626229
 30
0.0
 10
10.51003246301732
 20
15.6986747791332
 30
0.0
 10
10.47857281554987
 20
15.42307443166234
 30
0.0
 10
10.41842995556477
 20
15.06156918632114
 30
0.0
 10
10.36472561927627
 20
14.79948092089757
 30
0.0
 10
10.30681757337656
 20
14.56217381336086
 30
0.0
 10
10.24647077284803
 20
14.34956614754864
 30
0.0
 10
10.18544147719436
 20
14.16147654682543
 30
0.0
 10
10.12545550494115
 20
13.99763482189896
 30
0.0
 10
10.06825385924683
 20
13.85765395043602
 30
0.0
 10
10.01543731022601
 20
13.7411186849798
 30
0.0
 10
9.973504409346525
 20
13.65661768352159
 30
0.0
 10
9.942759552934211
 20
13.59984893265237
 30
0.0
 10
9.922818100800544
 20
13.56252983148812
 30
0.0
 10
9.905936108753966
 20
13.52854036418114
 30
0.0
 10
9.880094495326286
 20
13.47307167137643
 30
0.0
 10
9.848820654136949
 20
13.39499293848095
 30
0.0
 10
9.819002058526905
 20
13.29088672052043
 30
0.0
 10
9.802344852457983
 20
13.17937918024453
 30
0.0
 10
9.805820815339693
 20
13.05360756574283
 30
0.0
 10
9.849867864354291
 20
12.89386448265557
 30
0.0
 10
9.928388066703343
 20
12.79308784696227
 30
0.0
 10
9.98663675176602
 20
12.74614226494731
 30
0.0
  0
ARC
  5
80
330
1F
100
AcDbEntity
  8
0
  6
Continuous
 62
     7
370
    15
100
AcDbCircle
 10
0.0
 20
0.0
 30
0.0
 40
19.04999999999988
100
AcDbArc
 50
56.4610062611
 51
59.2532794532
  0
SPLINE
  5
81
330
1F
100
AcDbEntity
  8
0
  6
Continuous
 62
     7
370
    15
100
AcDbSpline
210
0.0
220
0.0
230
1.0
 70
     8
 71
     3
 72
    27
 73
    23
 74
     0
 42
0.000000001
 43
0.00000001
 40
0.0
 40
0.0
 40
0.0
 40
0.0
 40
0.0659735702910813
 40
0.1082952230326797
 40
0.1438476379623052
 40
0.1759621024725138
 40
0.2071390505872402
 40
0.2389417311331459
 40
0.2498612960436302
 40
0.2609839469428024
 40
0.2723311692310569
 40
0.2870924364631913
 40
0.3177918106828519
 40
0.3553132651013895
 40
0.3996568001287957
 40
0.4508224160110649
 40
0.5088101129073723
 40
0.5736198909266226
 40
0.6452517501466098
 40
0.7237056906248298
 40
0.8089817124049832
 40
0.9676546182281333
 40
0.9676546182281333
 40
0.9676546182281333
 40
0.9676546182281333
 10
7.150838071496742
 20
14.5279926736364
 30
0.0
 10
7.218407736651479
 20
14.49588134645842
 30
0.0
 10
7.343272987014582
 20
14.46886243215092
 30
0.0
 10
7.506307830062472
 20
14.49848733845398
 30
0.0
 10
7.62113230296644
 20
14.54992586248651
 30
0.0
 10
7.714369834438923
 20
14.61331479509563
 30
0.0
 10
7.795228492017841
 20
14.68535041653901
 30
0.0
 10
7.852005788450088
 20
14.74740426640461
 30
0.0
 10
7.890769097951507
 20
14.79475371943743
 30
0.0
 10
7.914067727998738
 20
14.82471134586535
 30
0.0
 10
7.939038804510616
 20
14.85887012457222
 30
0.0
 10
7.976845988454646
 20
14.91120132094005
 30
0.0
 10
8.034784756249376
 20
14.98564516964521
 30
0.0
 10
8.116863160661662
 20
15.08379399273828
 30
0.0
 10
8.218162704033999
 20
15.19606631861699
 30
0.0
 10
8.339752059520272
 20
15.32120007236266
 30
0.0
 10
8.482735315154047
 20
15.45779458702765
 30
0.0
 10
8.64810470767105
 20
15.60441218458916
 30
0.0
 10
8.836785664213526
 20
15.75954922628319
 30
0.0
 10
9.049617593766902
 20
15.92165099793147
 30
0.0
 10
9.34922755643103
 20
16.13268908996415
 30
0.0
 10
9.583885060010754
 20
16.28061176219043
 30
0.0
 10
9.739196203067165
 20
16.37224961079426
 30
0.0
  0
ARC
  5
82
330
1F
100
AcDbEntity
  8
0
  6
Continuous
 62
     7
370
    15
100
AcDbCircle
 10
0.0
 20
0.0
 30
0.0
 40
16.1925
100
AcDbArc
 50
63.7930805766
 51
64.7783479948
  0
SPLINE
  5
83
330
1F
100
AcDbEntity
  8
0
  6
Continuous
 62
     7
370
    15
100
AcDbSpline
210
0.0
220
0.0
230
1.0
 70
     8
 71
     3
 72
    27
 73
    23
 74
     0
 42
0.000000001
 43
0.00000001
 40
0.0323453817718662
 40
0.0323453817718662
 40
0.0323453817718662
 40
0.0323453817718662
 40
0.1910182875950168
 40
0.2762943093751701
 40
0.3547482498533902
 40
0.4263801090733774
 40
0.4911898870926277
 40
0.5491775839889351
 40
0.6003431998712043
 40
0.6446867348986105
 40
0.6822081893171481
 40
0.7129075635368087
 40
0.7276688307689431
 40
0.7390160530571976
 40
0.7501387039563698
 40
0.7610582688668541
 40
0.7928609494127598
 40
0.8240378975274862
 40
0.8561523620376948
 40
0.8917047769673203
 40
0.9340264297089187
 40
1.0
 40
1.0
 40
1.0
 40
1.0
 10
6.728050673616525
 20
17.82234087131202
 30
0.0
 10
6.753240232403243
 20
17.64377846602368
 30
0.0
 10
6.783896190697733
 20
17.36808756453093
 30
0.0
 10
6.805703722603243
 20
17.00226296507297
 30
0.0
 10
6.811665991751431
 20
16.7347954605878
 30
0.0
 10
6.808015620667446
 20
16.49055238523393
 30
0.0
 10
6.796491496784127
 20
16.26984681107489
 30
0.0
 10
6.778846206610971
 20
16.07289271347116
 30
0.0
 10
6.756822421573609
 20
15.89981070809025
 30
0.0
 10
6.732203614817432
 20
15.75061088570576
 30
0.0
 10
6.706642823060078
 20
15.62524461484251
 30
0.0
 10
6.684564509318641
 20
15.53353128164639
 30
0.0
 10
6.667222726109207
 20
15.47134446772107
 30
0.0
 10
6.65608552906014
 20
15.43052364378527
 30
0.0
 10
6.647190171810526
 20
15.39362976675026
 30
0.0
 10
6.634339406912306
 20
15.33380148992784
 30
0.0
 10
6.621223818781711
 20
15.2507212695304
 30
0.0
 10
6.615318650470654
 20
15.14258995006459
 30
0.0
 10
6.623891837340464
 20
15.03017155957931
 30
0.0
 10
6.655267467699664
 20
14.90832677654827
 30
0.0
 10
6.733756345274876
 20
14.76239017655327
 30
0.0
 10
6.832732793310581
 20
14.68161261028125
 30
0.0
 10
6.899967436981166
 20
14.64880560382312
 30
0.0
  0
ARC
  5
84
330
1F
100
AcDbEntity
  8
0
  6
Continuous
 62
     7
370
    15
100
AcDbCircle
 10
0.0
 20
0.0
 30
0.0
 40
19.04999999999988
100
AcDbArc
 50
69.3181491182
 51
72.1104223104
  0
SPLINE
  5
85
330
1F
100
AcDbEntity
  8
0
  6
Continuous
 62
     7
370
    15
100
AcDbSpline
210
0.0
220
0.0
230
1.0
 70
     8
 71
     3
 72
    11
 73
     7
 74
     0
 42
0.000000001
 43
0.00000001
 40
0.5953402496329462
 40
0.5953402496329462
 40
0.5953402496329462
 40
0.5953402496329462
 40
0.6452517501466098
 40
0.7237056906248298
 40
0.8089817124049832
 40
0.9676546182281337
 40
0.9676546182281337
 40
0.9676546182281337
 40
0.9676546182281337
 10
4.999999998829449
 20
17.1896728918417
 30
0.0
 10
5.034346703005186
 20
17.23481624148558
 30
0.0
 10
5.124219313511829
 20
17.34974928869562
 30
0.0
 10
5.279824136548603
 20
17.53619132481356
 30
0.0
 10
5.524961858578142
 20
17.80860773998446
 30
0.0
 10
5.720820117443811
 20
18.0050378888388
 30
0.0
 10
5.851845946225296
 20
18.1289381658617
 30
0.0
  0
LINE
  5
86
330
1F
100
AcDbEntity
  8
0
  6
Continuous
 62
     7
370
    15
100
AcDbLine
 10
5.0
 20
17.189672891
 30
0.0
 11
5.0
 21
30.8993473504
 31
0.0
  0
ARC
  5
87
330
1F
100
AcDbEntity
  8
0
  6
Continuous
 62
     7
370
    15
100
AcDbCircle
 10
0.0
 20
30.8993473504
 30
0.0
 40
5.000000000000001
100
AcDbArc
 50
0.0
 51
180.0
  0
LINE
  5
88
330
1F
100
AcDbEntity
  8
0
  6
Continuous
 62
     7
370
    15
100
AcDbLine
 10
-5.0
 20
30.8993473504
 30
0.0
 11
-5.0
 21
17.1896729059
 31
0.0
  0
SPLINE
  5
89
330
1F
100
AcDbEntity
  8
0
  6
Continuous
 62
     7
370
    15
100
AcDbSpline
210
0.0
220
0.0
230
1.0
 70
     8
 71
     3
 72
    11
 73
     7
 74
     0
 42
0.000000001
 43
0.00000001
 40
0.0323453817718653
 40
0.0323453817718653
 40
0.0323453817718653
 40
0.0323453817718653
 40
0.1910182875950168
 40
0.2762943093751701
 40
0.3547482498533902
 40
0.4046597468878735
 40
0.4046597468878735
 40
0.4046597468878735
 40
0.4046597468878735
 10
-5.851845946232809
 20
18.12893816585929
 30
0.0
 10
-5.720820117451273
 20
18.00503788883644
 30
0.0
 10
-5.524961858585519
 20
17.80860773998216
 30
0.0
 10
-5.279824136555868
 20
17.53619132481138
 30
0.0
 10
-5.124219316053062
 20
17.34974929172973
 30
0.0
 10
-5.034346707884088
 20
17.23481624771372
 30
0.0
 10
-5.000000006019186
 20
17.18967290128005
 30
0.0
  0
ARC
  5
8A
330
1F
100
AcDbEntity
  8
0
  6
Continuous
 62
     7
370
    15
100
AcDbCircle
 10
0.0
 20
0.0
 30
0.0
 40
19.04999999999988
100
AcDbArc
 50
107.8895776896
 51
110.6818508818
  0
SPLINE
  5
8B
330
1F
100
AcDbEntity
  8
0
  6
Continuous
 62
     7
370
    15
100
AcDbSpline
210
0.0
220
0.0
230
1.0
 70
     8
 71
     3
 72
    27
 73
    23
 74
     0
 42
0.000000001
 43
0.00000001
 40
0.0
 40
0.0
 40
0.0
 40
0.0
 40
0.0659735702910813
 40
0.1082952230326797
 40
0.1438476379623052
 40
0.1759621024725138
 40
0.2071390505872402
 40
0.2389417311331459
 40
0.2498612960436302
 40
0.2609839469428024
 40
0.2723311692310569
 40
0.2870924364631913
 40
0.3177918106828519
 40
0.3553132651013895
 40
0.3996568001287957
 40
0.4508224160110649
 40
0.5088101129073723
 40
0.5736198909266226
 40
0.6452517501466098
 40
0.7237056906248298
 40
0.8089817124049832
 40
0.9676546182281328
 40
0.9676546182281328
 40
0.9676546182281328
 40
0.9676546182281328
 10
-6.89996743698723
 20
14.64880560382026
 30
0.0
 10
-6.832732793316658
 20
14.68161261027841
 30
0.0
 10
-6.733756345280988
 20
14.76239017655049
 30
0.0
 10
-6.655267467705835
 20
14.90832677654551
 30
0.0
 10
-6.623891837346683
 20
15.03017155957657
 30
0.0
 10
-6.615318650476921
 20
15.14258995006185
 30
0.0
 10
-6.621223818788023
 20
15.25072126952766
 30
0.0
 10
-6.634339406918652
 20
15.33380148992509
 30
0.0
 10
-6.647190171816898
 20
15.39362976674751
 30
0.0
 10
-6.656085529066527
 20
15.43052364378252
 30
0.0
 10
-6.667222726115609
 20
15.47134446771831
 30
0.0
 10
-6.684564509325073
 20
15.53353128164362
 30
0.0
 10
-6.706642823066544
 20
15.62524461483973
 30
0.0
 10
-6.732203614823954
 20
15.75061088570298
 30
0.0
 10
-6.756822421580188
 20
15.89981070808745
 30
0.0
 10
-6.778846206617626
 20
16.07289271346835
 30
0.0
 10
-6.796491496790861
 20
16.26984681107208
 30
0.0
 10
-6.808015620674275
 20
16.49055238523112
 30
0.0
 10
-6.811665991758359
 20
16.73479546058498
 30
0.0
 10
-6.80570372261028
 20
17.00226296507015
 30
0.0
 10
-6.783896190704927
 20
17.36808756452813
 30
0.0
 10
-6.753240232410548
 20
17.64377846602088
 30
0.0
 10
-6.728050673623903
 20
17.82234087130923
 30
0.0
  0
ARC
  5
8C
330
1F
100
AcDbEntity
  8
0
  6
Continuous
 62
     7
370
    15
100
AcDbCircle
 10
0.0
 20
0.0
 30
0.0
 40
16.1925
100
AcDbArc
 50
115.2216520052
 51
116.2069194234
  0
SPLINE
  5
8D
330
1F
100
AcDbEntity
  8
0
  6
Continuous
 62
     7
370
    15
100
AcDbSpline
210
0.0
220
0.0
230
1.0
 70
     8
 71
     3
 72
    27
 73
    23
 74
     0
 42
0.000000001
 43
0.00000001
 40
0.032345381771866
 40
0.032345381771866
 40
0.032345381771866
 40
0.032345381771866
 40
0.1910182875950168
 40
0.2762943093751701
 40
0.3547482498533902
 40
0.4263801090733774
 40
0.4911898870926277
 40
0.5491775839889351
 40
0.6003431998712043
 40
0.6446867348986105
 40
0.6822081893171481
 40
0.7129075635368087
 40
0.7276688307689431
 40
0.7390160530571976
 40
0.7501387039563698
 40
0.7610582688668541
 40
0.7928609494127598
 40
0.8240378975274862
 40
0.8561523620376948
 40
0.8917047769673203
 40
0.9340264297089187
 40
1.0
 40
1.0
 40
1.0
 40
1.0
 10
-9.739196203073938
 20
16.37224961079023
 30
0.0
 10
-9.583885060017492
 20
16.28061176218646
 30
0.0
 10
-9.349227556437704
 20
16.13268908996027
 30
0.0
 10
-9.049617593773492
 20
15.92165099792772
 30
0.0
 10
-8.83678566422005
 20
15.75954922627954
 30
0.0
 10
-8.648104707677508
 20
15.60441218458557
 30
0.0
 10
-8.482735315160445
 20
15.45779458702414
 30
0.0
 10
-8.339752059526608
 20
15.32120007235921
 30
0.0
 10
-8.21816270404029
 20
15.19606631861359
 30
0.0
 10
-8.116863160667904
 20
15.08379399273492
 30
0.0
 10
-8.03478475625558
 20
14.98564516964188
 30
0.0
 10
-7.976845988460816
 20
14.91120132093675
 30
0.0
 10
-7.93903880451677
 20
14.85887012456894
 30
0.0
 10
-7.914067728004875
 20
14.82471134586208
 30
0.0
 10
-7.89076909795763
 20
14.79475371943416
 30
0.0
 10
-7.852005788456193
 20
14.74740426640136
 30
0.0
 10
-7.795228492023918
 20
14.68535041653578
 30
0.0
 10
-7.714369834444972
 20
14.61331479509243
 30
0.0
 10
-7.621132302972464
 20
14.54992586248336
 30
0.0
 10
-7.506307830068472
 20
14.49848733845087
 30
0.0
 10
-7.343272987020569
 20
14.46886243214788
 30
0.0
 10
-7.21840773665748
 20
14.49588134645543
 30
0.0
 10
-7.150838071502755
 20
14.52799267363343
 30
0.0
  0
ARC
  5
8E
330
1F
100
AcDbEntity
  8
0
  6
Continuous
 62
     7
370
    15
100
AcDbCircle
 10
0.0
 20
0.0
 30
0.0
 40
19.04999999999988
100
AcDbArc
 50
120.7467205468
 51
123.5389937389
  0
SPLINE
  5
8F
330
1F
100
AcDbEntity
  8
0
  6
Continuous
 62
     7
370
    15
100
AcDbSpline
210
0.0
220
0.0
230
1.0
 70
     8
 71
     3
 72
    27
 73
    23
 74
     0
 42
0.000000001
 43
0.00000001
 40
0.0
 40
0.0
 40
0.0
 40
0.0
 40
0.0659735702910813
 40
0.1082952230326797
 40
0.1438476379623052
 40
0.1759621024725138
 40
0.2071390505872402
 40
0.2389417311331459
 40
0.2498612960436302
 40
0.2609839469428024
 40
0.2723311692310569
 40
0.2870924364631913
 40
0.3177918106828519
 40
0.3553132651013895
 40
0.3996568001287957
 40
0.4508224160110649
 40
0.5088101129073723
 40
0.5736198909266226
 40
0.6452517501466098
 40
0.7237056906248298
 40
0.8089817124049832
 40
0.9676546182281324
 40
0.9676546182281324
 40
0.9676546182281324
 40
0.9676546182281324
 10
-9.986636751771293
 20
12.74614226494318
 30
0.0
 10
-9.928388066708631
 20
12.79308784695816
 30
0.0
 10
-9.849867864359627
 20
12.8938644826515
 30
0.0
 10
-9.805820815345092
 20
13.05360756573877
 30
0.0
 10
-9.802344852463435
 20
13.17937918024047
 30
0.0
 10
-9.819002058532403
 20
13.29088672051637
 30
0.0
 10
-9.84882065414249
 20
13.39499293847688
 30
0.0
 10
-9.880094495331855
 20
13.47307167137234
 30
0.0
 10
-9.905936108759564
 20
13.52854036417704
 30
0.0
 10
-9.922818100806156
 20
13.56252983148402
 30
0.0
 10
-9.942759552939835
 20
13.59984893264826
 30
0.0
 10
-9.973504409352177
 20
13.65661768351747
 30
0.0
 10
-10.01543731023169
 20
13.74111868497566
 30
0.0
 10
-10.06825385925257
 20
13.85765395043186
 30
0.0
 10
-10.12545550494694
 20
13.99763482189477
 30
0.0
 10
-10.18544147720022
 20
14.16147654682122
 30
0.0
 10
-10.24647077285397
 20
14.3495661475444
 30
0.0
 10
-10.30681757338258
 20
14.5621738133566
 30
0.0
 10
-10.36472561928239
 20
14.79948092089328
 30
0.0
 10
-10.418429955571
 20
15.06156918631683
 30
0.0
 10
-10.47857281555626
 20
15.42307443165801
 30
0.0
 10
-10.51003246302381
 20
15.69867477912885
 30
0.0
 10
-10.52520833226142
 20
15.87836545625794
 30
0.0
  0
ARC
  5
90
330
1F
100
AcDbEntity
  8
0
  6
Continuous
 62
     7
370
    15
100
AcDbCircle
 10
0.0
 20
0.0
 30
0.0
 40
16.1925
100
AcDbArc
 50
128.0787948623
 51
129.0640622805
  0
SPLINE
  5
91
330
1F
100
AcDbEntity
  8
0
  6
Continuous
 62
     7
370
    15
100
AcDbSpline
210
0.0
220
0.0
230
1.0
 70
     8
 71
     3
 72
    27
 73
    23
 74
     0
 42
0.000000001
 43
0.00000001
 40
0.032345381771866
 40
0.032345381771866
 40
0.032345381771866
 40
0.032345381771866
 40
0.1910182875950168
 40
0.2762943093751701
 40
0.3547482498533902
 40
0.4263801090733774
 40
0.4911898870926277
 40
0.5491775839889351
 40
0.6003431998712043
 40
0.6446867348986105
 40
0.6822081893171481
 40
0.7129075635368087
 40
0.7276688307689431
 40
0.7390160530571976
 40
0.7501387039563698
 40
0.7610582688668541
 40
0.7928609494127598
 40
0.8240378975274862
 40
0.8561523620376948
 40
0.8917047769673203
 40
0.9340264297089187
 40
1.0
 40
1.0
 40
1.0
 40
1.0
 10
-13.13818249495117
 20
13.79458809567539
 30
0.0
 10
-12.96637398685552
 20
13.73980777986604
 30
0.0
 10
-12.70468394563559
 20
13.64781004472463
 30
0.0
 10
-12.36562543692705
 20
13.50873260698317
 30
0.0
 10
-12.12205861057875
 20
13.39805462492919
 30
0.0
 10
-11.9035870401393
 20
13.28879265543805
 30
0.0
 10
-11.70973831881006
 20
13.18264921882905
 30
0.0
 10
-11.53994481294146
 20
13.08129618141504
 30
0.0
 10
-11.39355907670071
 20
12.98635596907432
 30
0.0
 10
-11.26981638156373
 20
12.8994398138102
 30
0.0
 10
-11.16795568633343
 20
12.82201594983648
 30
0.0
 10
-11.09490424967172
 20
12.76233115256557
 30
0.0
 10
-11.04640018407286
 20
12.71972489843021
 30
0.0
 10
-11.01445414124353
 20
12.69197913889017
 30
0.0
 10
-10.98507345748302
 20
12.6679570456209
 30
0.0
 10
-10.93674578057035
 20
12.63042039006618
 30
0.0
 10
-10.86758372887262
 20
12.58255649680351
 30
0.0
 10
-10.77272293289566
 20
12.53031970278995
 30
0.0
 10
-10.66771769651351
 20
12.48926736564899
 30
0.0
 10
-10.5443259644688
 20
12.46466936175993
 30
0.0
 10
-10.37878658350431
 20
12.47206587925181
 30
0.0
 10
-10.26306423970997
 20
12.52619250509658
 30
0.0
 10
-10.20433412964807
 20
12.57253439925696
 30
0.0
  0
ARC
  5
92
330
1F
100
AcDbEntity
  8
0
  6
Continuous
 62
     7
370
    15
100
AcDbCircle
 10
0.0
 20
0.0
 30
0.0
 40
19.04999999999988
100
AcDbArc
 50
133.6038634039
 51
136.3961365961
  0
SPLINE
  5
93
330
1F
100
AcDbEntity
  8
0
  6
Continuous
 62
     7
370
    15
100
AcDbSpline
210
0.0
220
0.0
230
1.0
 70
     8
 71
     3
 72
    27
 73
    23
 74
     0
 42
0.000000001
 43
0.00000001
 40
0.0
 40
0.0
 40
0.0
 40
0.0
 40
0.0659735702910813
 40
0.1082952230326797
 40
0.1438476379623052
 40
0.1759621024725138
 40
0.2071390505872402
 40
0.2389417311331459
 40
0.2498612960436302
 40
0.2609839469428024
 40
0.2723311692310569
 40
0.2870924364631913
 40
0.3177918106828519
 40
0.3553132651013895
 40
0.3996568001287957
 40
0.4508224160110649
 40
0.5088101129073723
 40
0.5736198909266226
 40
0.6452517501466098
 40
0.7237056906248298
 40
0.8089817124049832
 40
0.9676546182281338
 40
0.9676546182281338
 40
0.9676546182281338
 40
0.9676546182281338
 10
-12.57253439925802
 20
10.20433412964677
 30
0.0
 10
-12.52619250509764
 20
10.26306423970867
 30
0.0
 10
-12.47206587925288
 20
10.37878658350302
 30
0.0
 10
-12.46466936176102
 20
10.54432596446751
 30
0.0
 10
-12.48926736565009
 20
10.66771769651222
 30
0.0
 10
-12.53031970279106
 20
10.77272293289436
 30
0.0
 10
-12.58255649680463
 20
10.86758372887132
 30
0.0
 10
-12.63042039006731
 20
10.93674578056904
 30
0.0
 10
-12.66795704562203
 20
10.98507345748171
 30
0.0
 10
-12.69197913889131
 20
11.01445414124222
 30
0.0
 10
-12.71972489843135
 20
11.04640018407154
 30
0.0
 10
-12.76233115256672
 20
11.0949042496704
 30
0.0
 10
-12.82201594983763
 20
11.1679556863321
 30
0.0
 10
-12.89943981381137
 20
11.26981638156239
 30
0.0
 10
-12.9863559690755
 20
11.39355907669937
 30
0.0
 10
-13.08129618141623
 20
11.53994481294011
 30
0.0
 10
-13.18264921883026
 20
11.7097383188087
 30
0.0
 10
-13.28879265543928
 20
11.90358704013793
 30
0.0
 10
-13.39805462493044
 20
12.12205861057737
 30
0.0
 10
-13.50873260698445
 20
12.36562543692565
 30
0.0
 10
-13.64781004472596
 20
12.70468394563418
 30
0.0
 10
-13.73980777986738
 20
12.96637398685409
 30
0.0
 10
-13.79458809567675
 20
13.13818249494974
 30
0.0
  0
ARC
  5
94
330
1F
100
AcDbEntity
  8
0
  6
Continuous
 62
     7
370
    15
100
AcDbCircle
 10
0.0
 20
0.0
 30
0.0
 40
16.1925
100
AcDbArc
 50
140.9359377195
 51
141.9212051377
  0
SPLINE
  5
95
330
1F
100
AcDbEntity
  8
0
  6
Continuous
 62
     7
370
    15
100
AcDbSpline
210
0.0
220
0.0
230
1.0
 70
     8
 71
     3
 72
    27
 73
    23
 74
     0
 42
0.000000001
 43
0.00000001
 40
0.0323453817718671
 40
0.0323453817718671
 40
0.0323453817718671
 40
0.0323453817718671
 40
0.1910182875950168
 40
0.2762943093751701
 40
0.3547482498533902
 40
0.4263801090733774
 40
0.4911898870926277
 40
0.5491775839889351
 40
0.6003431998712043
 40
0.6446867348986105
 40
0.6822081893171481
 40
0.7129075635368087
 40
0.7276688307689431
 40
0.7390160530571976
 40
0.7501387039563698
 40
0.7610582688668541
 40
0.7928609494127598
 40
0.8240378975274862
 40
0.8561523620376948
 40
0.8917047769673203
 40
0.9340264297089187
 40
1.0
 40
1.0
 40
1.0
 40
1.0
 10
-15.87836545625902
 20
10.52520833225978
 30
0.0
 10
-15.69867477912993
 20
10.51003246302219
 30
0.0
 10
-15.42307443165909
 20
10.47857281555465
 30
0.0
 10
-15.06156918631791
 20
10.41842995556944
 30
0.0
 10
-14.79948092089436
 20
10.36472561928085
 30
0.0
 10
-14.56217381335766
 20
10.30681757338107
 30
0.0
 10
-14.34956614754546
 20
10.24647077285248
 30
0.0
 10
-14.16147654682227
 20
10.18544147719875
 30
0.0
 10
-13.99763482189582
 20
10.1254555049455
 30
0.0
 10
-13.8576539504329
 20
10.06825385925113
 30
0.0
 10
-13.74111868497669
 20
10.01543731023027
 30
0.0
 10
-13.6566176835185
 20
9.97350440935076
 30
0.0
 10
-13.59984893264929
 20
9.942759552938428
 30
0.0
 10
-13.56252983148504
 20
9.92281810080475
 30
0.0
 10
-13.52854036417807
 20
9.905936108758162
 30
0.0
 10
-13.47307167137336
 20
9.880094495330463
 30
0.0
 10
-13.3949929384779
 20
9.848820654141104
 30
0.0
 10
-13.29088672051739
 20
9.819002058531028
 30
0.0
 10
-13.17937918024149
 20
9.80234485246207
 30
0.0
 10
-13.05360756573978
 20
9.805820815343742
 30
0.0
 10
-12.89386448265251
 20
9.84986786435829
 30
0.0
 10
-12.79308784695919
 20
9.92838806670731
 30
0.0
 10
-12.74614226494421
 20
9.986636751769975
 30
0.0
  0
ARC
  5
96
330
1F
100
AcDbEntity
  8
0
  6
Continuous
 62
     7
370
    15
100
AcDbCircle
 10
0.0
 20
0.0
 30
0.0
 40
19.04999999999988
100
AcDbArc
 50
146.4610062611
 51
149.2532794532
  0
SPLINE
  5
97
330
1F
100
AcDbEntity
  8
0
  6
Continuous
 62
     7
370
    15
100
AcDbSpline
210
0.0
220
0.0
230
1.0
 70
     8
 71
     3
 72
    27
 73
    23
 74
     0
 42
0.000000001
 43
0.00000001
 40
0.0
 40
0.0
 40
0.0
 40
0.0
 40
0.0659735702910813
 40
0.1082952230326797
 40
0.1438476379623052
 40
0.1759621024725138
 40
0.2071390505872402
 40
0.2389417311331459
 40
0.2498612960436302
 40
0.2609839469428024
 40
0.2723311692310569
 40
0.2870924364631913
 40
0.3177918106828519
 40
0.3553132651013895
 40
0.3996568001287957
 40
0.4508224160110649
 40
0.5088101129073723
 40
0.5736198909266226
 40
0.6452517501466098
 40
0.7237056906248298
 40
0.8089817124049832
 40
0.9676546182281329
 40
0.9676546182281329
 40
0.9676546182281329
 40
0.9676546182281329
 10
-14.52799267363418
 20
7.150838071501251
 30
0.0
 10
-14.49588134645618
 20
7.21840773665598
 30
0.0
 10
-14.46886243214864
 20
7.343272987019072
 30
0.0
 10
-14.49848733845165
 20
7.506307830066972
 30
0.0
 10
-14.54992586248414
 20
7.621132302970956
 30
0.0
 10
-14.61331479509323
 20
7.714369834443459
 30
0.0
 10
-14.68535041653659
 20
7.7952284920224
 30
0.0
 10
-14.74740426640218
 20
7.852005788454667
 30
0.0
 10
-14.79475371943498
 20
7.890769097956101
 30
0.0
 10
-14.8247113458629
 20
7.914067728003342
 30
0.0
 10
-14.85887012456976
 20
7.939038804515231
 30
0.0
 10
-14.91120132093757
 20
7.976845988459276
 30
0.0
 10
-14.98564516964272
 20
8.034784756254028
 30
0.0
 10
-15.08379399273576
 20
8.116863160666345
 30
0.0
 10
-15.19606631861444
 20
8.218162704038717
 30
0.0
 10
-15.32120007236007
 20
8.339752059525026
 30
0.0
 10
-15.45779458702501
 20
8.482735315158846
 30
0.0
 10
-15.60441218458647
 20
8.648104707675893
 30
0.0
 10
-15.75954922628045
 20
8.83678566421842
 30
0.0
 10
-15.92165099792866
 20
9.049617593771845
 30
0.0
 10
-16.13268908996125
 20
9.349227556436038
 30
0.0
 10
-16.28061176218745
 20
9.583885060015804
 30
0.0
 10
-16.37224961079124
 20
9.739196203072243
 30
0.0
  0
ARC
  5
98
330
1F
100
AcDbEntity
  8
0
  6
Continuous
 62
     7
370
    15
100
AcDbCircle
 10
0.0
 20
0.0
 30
0.0
 40
16.1925
100
AcDbArc
 50
153.7930805766
 51
154.7783479948
  0
SPLINE
  5
99
330
1F
100
AcDbEntity
  8
0
  6
Continuous
 62
     7
370
    15
100
AcDbSpline
210
0.0
220
0.0
230
1.0
 70
     8
 71
     3
 72
    27
 73
    23
 74
     0
 42
0.000000001
 43
0.00000001
 40
0.0323453817718676
 40
0.0323453817718676
 40
0.0323453817718676
 40
0.0323453817718676
 40
0.1910182875950168
 40
0.2762943093751701
 40
0.3547482498533902
 40
0.4263801090733774
 40
0.4911898870926277
 40
0.5491775839889351
 40
0.6003431998712043
 40
0.6446867348986105
 40
0.6822081893171481
 40
0.7129075635368087
 40
0.7276688307689431
 40
0.7390160530571976
 40
0.7501387039563698
 40
0.7610582688668541
 40
0.7928609494127598
 40
0.8240378975274862
 40
0.8561523620376948
 40
0.8917047769673203
 40
0.9340264297089187
 40
1.0
 40
1.0
 40
1.0
 40
1.0
 10
-17.82234087130993
 20
6.728050673622061
 30
0.0
 10
-17.64377846602158
 20
6.753240232408721
 30
0.0
 10
-17.36808756452883
 20
6.783896190703127
 30
0.0
 10
-17.00226296507086
 20
6.805703722608524
 30
0.0
 10
-16.73479546058568
 20
6.811665991756626
 30
0.0
 10
-16.49055238523182
 20
6.808015620672567
 30
0.0
 10
-16.26984681107279
 20
6.796491496789178
 30
0.0
 10
-16.07289271346905
 20
6.77884620661596
 30
0.0
 10
-15.89981070808816
 20
6.756822421578545
 30
0.0
 10
-15.75061088570368
 20
6.732203614822322
 30
0.0
 10
-15.62524461484043
 20
6.70664282306493
 30
0.0
 10
-15.53353128164431
 20
6.684564509323464
 30
0.0
 10
-15.471344467719
 20
6.66722272611401
 30
0.0
 10
-15.43052364378321
 20
6.65608552906493
 30
0.0
 10
-15.39362976674819
 20
6.647190171815306
 30
0.0
 10
-15.33380148992578
 20
6.634339406917067
 30
0.0
 10
-15.25072126952834
 20
6.621223818786445
 30
0.0
 10
-15.14258995006254
 20
6.615318650475355
 30
0.0
 10
-15.03017155957726
 20
6.623891837345131
 30
0.0
 10
-14.9083267765462
 20
6.655267467704293
 30
0.0
 10
-14.76239017655118
 20
6.73375634527946
 30
0.0
 10
-14.68161261027913
 20
6.832732793315139
 30
0.0
 10
-14.64880560382097
 20
6.899967436985714
 30
0.0
  0
ARC
  5
9A
330
1F
100
AcDbEntity
  8
0
  6
Continuous
 62
     7
370
    15
100
AcDbCircle
 10
0.0
 20
0.0
 30
0.0
 40
19.04999999999988
100
AcDbArc
 50
159.3181491182
 51
162.1104223104
  0
SPLINE
  5
9B
330
1F
100
AcDbEntity
  8
0
  6
Continuous
 62
     7
370
    15
100
AcDbSpline
210
0.0
220
0.0
230
1.0
 70
     8
 71
     3
 72
    27
 73
    23
 74
     0
 42
0.000000001
 43
0.00000001
 40
0.0
 40
0.0
 40
0.0
 40
0.0
 40
0.0659735702910813
 40
0.1082952230326797
 40
0.1438476379623052
 40
0.1759621024725138
 40
0.2071390505872402
 40
0.2389417311331459
 40
0.2498612960436302
 40
0.2609839469428024
 40
0.2723311692310569
 40
0.2870924364631913
 40
0.3177918106828519
 40
0.3553132651013895
 40
0.3996568001287957
 40
0.4508224160110649
 40
0.5088101129073723
 40
0.5736198909266226
 40
0.6452517501466098
 40
0.7237056906248298
 40
0.8089817124049832
 40
0.9676546182281334
 40
0.9676546182281334
 40
0.9676546182281334
 40
0.9676546182281334
 10
-15.75495673173988
 20
3.73876913315121
 30
0.0
 10
-15.73868616757419
 20
3.811790128241557
 30
0.0
 10
-15.74012980598841
 20
3.939537020128308
 30
0.0
 10
-15.80529061958143
 20
4.091892077454973
 30
0.0
 10
-15.88099032137378
 20
4.192391512681587
 30
0.0
 10
-15.96353726368084
 20
4.269186020090391
 30
0.0
 10
-16.05175954570025
 20
4.331987948543953
 30
0.0
 10
-16.12489171302218
 20
4.373533438986314
 30
0.0
 10
-16.17967966424389
 20
4.400788626876625
 30
0.0
 10
-16.2140706233492
 20
4.416836912613422
 30
0.0
 10
-16.25292955742388
 20
4.433580868761432
 30
0.0
 10
-16.31236159132223
 20
4.458795360978655
 30
0.0
 10
-16.39783156603707
 20
4.498716168158009
 30
0.0
 10
-16.51178375642575
 20
4.556896527825545
 30
0.0
 10
-16.64378244969102
 20
4.63067333733857
 30
0.0
 10
-16.79283501591569
 20
4.721369314073432
 30
0.0
 10
-16.95782158849722
 20
4.830372541988917
 30
0.0
 10
-17.13756132844761
 20
4.95897029383053
 30
0.0
 10
-17.33079422327801
 20
5.108399385452036
 30
0.0
 10
-17.53619132481192
 20
5.279824136554051
 30
0.0
 10
-17.80860773998275
 20
5.524961858583674
 30
0.0
 10
-18.00503788883703
 20
5.720820117449404
 30
0.0
 10
-18.12893816585989
 20
5.851845946230926
 30
0.0
  0
ARC
  5
9C
330
1F
100
AcDbEntity
  8
0
  6
Continuous
 62
     7
370
    15
100
AcDbCircle
 10
0.0
 20
0.0
 30
0.0
 40
16.1925
100
AcDbArc
 50
166.6502234338
 51
167.635490852
  0
SPLINE
  5
9D
330
1F
100
AcDbEntity
  8
0
  6
Continuous
 62
     7
370
    15
100
AcDbSpline
210
0.0
220
0.0
230
1.0
 70
     8
 71
     3
 72
    27
 73
    23
 74
     0
 42
0.000000001
 43
0.00000001
 40
0.0323453817718667
 40
0.0323453817718667
 40
0.0323453817718667
 40
0.0323453817718667
 40
0.1910182875950168
 40
0.2762943093751701
 40
0.3547482498533902
 40
0.4263801090733774
 40
0.4911898870926277
 40
0.5491775839889351
 40
0.6003431998712043
 40
0.6446867348986105
 40
0.6822081893171481
 40
0.7129075635368087
 40
0.7276688307689431
 40
0.7390160530571976
 40
0.7501387039563698
 40
0.7610582688668541
 40
0.7928609494127598
 40
0.8240378975274862
 40
0.8561523620376948
 40
0.8917047769673203
 40
0.9340264297089187
 40
1.0
 40
1.0
 40
1.0
 40
1.0
 10
-18.87262969545881
 20
2.593520460315905
 30
0.0
 10
-18.70414942662402
 20
2.657812337466818
 30
0.0
 10
-18.44219226409517
 20
2.749046683766144
 30
0.0
 10
-18.09039228348773
 20
2.851711086852099
 30
0.0
 10
-17.83095747746285
 20
2.917040988365536
 30
0.0
 10
-17.59202580196033
 20
2.967831336945972
 30
0.0
 10
-17.37428941852901
 20
3.005707757399853
 30
0.0
 10
-17.17834692490727
 20
3.032331281236744
 30
0.0
 10
-17.00470369354926
 20
3.049374047960265
 30
0.0
 10
-16.85376642234177
 20
3.058572569912128
 30
0.0
 10
-16.72585553437653
 20
3.061549260249489
 30
0.0
 10
-16.63152875893047
 20
3.060432632488075
 30
0.0
 10
-16.56704218846879
 20
3.057363511904601
 30
0.0
 10
-16.52476656832651
 20
3.055589035505044
 30
0.0
 10
-16.48681829461341
 20
3.055126363408657
 30
0.0
 10
-16.42563047339429
 20
3.055910838052
 30
0.0
 10
-16.34171475465839
 20
3.061611173334911
 30
0.0
 10
-16.23498048956238
 20
3.079915542119758
 30
0.0
 10
-16.12728837638497
 20
3.113289226540105
 30
0.0
 10
-16.01548023102524
 20
3.170991219257329
 30
0.0
 10
-15.8906679846244
 20
3.279986165330484
 30
0.0
 10
-15.83394001224423
 20
3.394455766658659
 30
0.0
 10
-15.81691666163685
 20
3.46730494315608
 30
0.0
  0
ARC
  5
9E
330
1F
100
AcDbEntity
  8
0
  6
Continuous
 62
     7
370
    15
100
AcDbCircle
 10
0.0
 20
0.0
 30
0.0
 40
19.04999999999988
100
AcDbArc
 50
172.1752919754
 51
174.9675651675
  0
SPLINE
  5
9F
330
1F
100
AcDbEntity
  8
0
  6
Continuous
 62
     7
370
    15
100
AcDbSpline
210
0.0
220
0.0
230
1.0
 70
     8
 71
     3
 72
    27
 73
    23
 74
     0
 42
0.000000001
 43
0.00000001
 40
0.0
 40
0.0
 40
0.0
 40
0.0
 40
0.0659735702910813
 40
0.1082952230326797
 40
0.1438476379623052
 40
0.1759621024725138
 40
0.2071390505872402
 40
0.2389417311331459
 40
0.2498612960436302
 40
0.2609839469428024
 40
0.2723311692310569
 40
0.2870924364631913
 40
0.3177918106828519
 40
0.3553132651013895
 40
0.3996568001287957
 40
0.4508224160110649
 40
0.5088101129073723
 40
0.5736198909266226
 40
0.6452517501466098
 40
0.7237056906248298
 40
0.8089817124049832
 40
0.9676546182281328
 40
0.9676546182281328
 40
0.9676546182281328
 40
0.9676546182281328
 10
-16.19190147234598
 20
0.1392226987246372
 30
0.0
 10
-16.19228754521983
 20
0.2140334461476539
 30
0.0
 10
-16.22212134629761
 20
0.3382562169742931
 30
0.0
 10
-16.31955063189922
 20
0.4722917698260477
 30
0.0
 10
-16.41571561230913
 20
0.5534267060439328
 30
0.0
 10
-16.51328131594087
 20
0.6099273921216244
 30
0.0
 10
-16.61326642493171
 20
0.6515234405191288
 30
0.0
 10
-16.69380975746711
 20
0.675753860601945
 30
0.0
 10
-16.75328891022893
 20
0.6901342379525578
 30
0.0
 10
-16.79038869571795
 20
0.6981274513202633
 30
0.0
 10
-16.83199923594517
 20
0.705804675226462
 30
0.0
 10
-16.89555193702781
 20
0.7171621157905418
 30
0.0
 10
-16.98776221632863
 20
0.73706316638775
 30
0.0
 10
-17.11180373536395
 20
0.7684280751367488
 30
0.0
 10
-17.25690983035694
 20
0.8109826734963159
 30
0.0
 10
-17.42240709100082
 20
0.8662373964928265
 30
0.0
 10
-17.60751260582578
 20
0.9357947196844532
 30
0.0
 10
-17.81136158707619
 20
1.021172402595844
 30
0.0
 10
-18.0330008308259
 20
1.12385663068088
 30
0.0
 10
-18.27139379391101
 20
1.245278250503805
 30
0.0
 10
-18.59152843565152
 20
1.423651502910307
 30
0.0
 10
-18.82661623324945
 20
1.570889366129604
 30
0.0
 10
-18.97656606143896
 20
1.671059698464891
 30
0.0
  0
ARC
  5
A0
330
1F
100
AcDbEntity
  8
0
  6
Continuous
 62
     7
370
    15
100
AcDbCircle
 10
0.0
 20
0.0
 30
0.0
 40
16.1925
100
AcDbArc
 50
179.5073662909
 51
180.4926337091
  0
SPLINE
  5
A1
330
1F
100
AcDbEntity
  8
0
  6
Continuous
 62
     7
370
    15
100
AcDbSpline
210
0.0
220
0.0
230
1.0
 70
     8
 71
     3
 72
    27
 73
    23
 74
     0
 42
0.000000001
 43
0.00000001
 40
0.0323453817718655
 40
0.0323453817718655
 40
0.0323453817718655
 40
0.0323453817718655
 40
0.1910182875950168
 40
0.2762943093751701
 40
0.3547482498533902
 40
0.4263801090733774
 40
0.4911898870926277
 40
0.5491775839889351
 40
0.6003431998712043
 40
0.6446867348986105
 40
0.6822081893171481
 40
0.7129075635368087
 40
0.7276688307689431
 40
0.7390160530571976
 40
0.7501387039563698
 40
0.7610582688668541
 40
0.7928609494127598
 40
0.8240378975274862
 40
0.8561523620376948
 40
0.8917047769673203
 40
0.9340264297089187
 40
1.0
 40
1.0
 40
1.0
 40
1.0
 10
-18.97656606143862
 20
-1.671059698468819
 30
0.0
 10
-18.82661623324913
 20
-1.5708893661335
 30
0.0
 10
-18.59152843565121
 20
-1.423651502914154
 30
0.0
 10
-18.27139379391075
 20
-1.245278250507585
 30
0.0
 10
-18.03300083082567
 20
-1.12385663068461
 30
0.0
 10
-17.81136158707598
 20
-1.021172402599528
 30
0.0
 10
-17.60751260582558
 20
-0.9357947196880945
 30
0.0
 10
-17.42240709100063
 20
-0.86623739649643
 30
0.0
 10
-17.25690983035678
 20
-0.8109826734998852
 30
0.0
 10
-17.11180373536379
 20
-0.7684280751402879
 30
0.0
 10
-16.98776221632848
 20
-0.7370631663912636
 30
0.0
 10
-16.89555193702766
 20
-0.7171621157940362
 30
0.0
 10
-16.83199923594503
 20
-0.7058046752299434
 30
0.0
 10
-16.79038869571781
 20
-0.6981274513237362
 30
0.0
 10
-16.75328891022879
 20
-0.6901342379560226
 30
0.0
 10
-16.69380975746698
 20
-0.6757538606053974
 30
0.0
 10
-16.61326642493158
 20
-0.6515234405225647
 30
0.0
 10
-16.51328131594074
 20
-0.6099273921250394
 30
0.0
 10
-16.41571561230902
 20
-0.5534267060473279
 30
0.0
 10
-16.31955063189912
 20
-0.4722917698294229
 30
0.0
 10
-16.22212134629753
 20
-0.3382562169776482
 30
0.0
 10
-16.19228754521979
 20
-0.2140334461510029
 30
0.0
 10
-16.19190147234595
 20
-0.1392226987279861
 30
0.0
  0
ARC
  5
A2
330
1F
100
AcDbEntity
  8
0
  6
Continuous
 62
     7
370
    15
100
AcDbCircle
 10
0.0
 20
0.0
 30
0.0
 40
19.04999999999988
100
AcDbArc
 50
185.0324348325
 51
187.8247080247
  0
SPLINE
  5
A3
330
1F
100
AcDbEntity
  8
0
  6
Continuous
 62
     7
370
    15
100
AcDbSpline
210
0.0
220
0.0
230
1.0
 70
     8
 71
     3
 72
    27
 73
    23
 74
     0
 42
0.000000001
 43
0.00000001
 40
0.0
 40
0.0
 40
0.0
 40
0.0
 40
0.0659735702910813
 40
0.1082952230326797
 40
0.1438476379623052
 40
0.1759621024725138
 40
0.2071390505872402
 40
0.2389417311331459
 40
0.2498612960436302
 40
0.2609839469428024
 40
0.2723311692310569
 40
0.2870924364631913
 40
0.3177918106828519
 40
0.3553132651013895
 40
0.3996568001287957
 40
0.4508224160110649
 40
0.5088101129073723
 40
0.5736198909266226
 40
0.6452517501466098
 40
0.7237056906248298
 40
0.8089817124049832
 40
0.9676546182281345
 40
0.9676546182281345
 40
0.9676546182281345
 40
0.9676546182281345
 10
-15.81691666163613
 20
-3.467304943159355
 30
0.0
 10
-15.83394001224353
 20
-3.394455766661936
 30
0.0
 10
-15.89066798462372
 20
-3.279986165333775
 30
0.0
 10
-16.01548023102459
 20
-3.170991219260646
 30
0.0
 10
-16.12728837638432
 20
-3.113289226543444
 30
0.0
 10
-16.23498048956175
 20
-3.07991554212312
 30
0.0
 10
-16.34171475465777
 20
-3.061611173338295
 30
0.0
 10
-16.42563047339365
 20
-3.0559108380554
 30
0.0
 10
-16.48681829461278
 20
-3.05512636341207
 30
0.0
 10
-16.52476656832588
 20
-3.055589035508466
 30
0.0
 10
-16.56704218846815
 20
-3.057363511908031
 30
0.0
 10
-16.63152875892984
 20
-3.06043263249152
 30
0.0
 10
-16.72585553437589
 20
-3.061549260252951
 30
0.0
 10
-16.85376642234114
 20
-3.058572569915618
 30
0.0
 10
-17.00470369354862
 20
-3.049374047963785
 30
0.0
 10
-17.17834692490665
 20
-3.032331281240302
 30
0.0
 10
-17.37428941852839
 20
-3.00570775740345
 30
0.0
 10
-17.59202580195972
 20
-2.967831336949617
 30
0.0
 10
-17.83095747746225
 20
-2.917040988369229
 30
0.0
 10
-18.09039228348714
 20
-2.851711086855844
 30
0.0
 10
-18.44219226409461
 20
-2.749046683769965
 30
0.0
 10
-18.70414942662348
 20
-2.65781233747069
 30
0.0
 10
-18.87262969545827
 20
-2.593520460319811
 30
0.0
  0
ARC
  5
A4
330
1F
100
AcDbEntity
  8
0
  6
Continuous
 62
     7
370
    15
100
AcDbCircle
 10
0.0
 20
0.0
 30
0.0
 40
16.1925
100
AcDbArc
 50
192.364509148
 51
193.3497765663
  0
SPLINE
  5
A5
330
1F
100
AcDbEntity
  8
0
  6
Continuous
 62
     7
370
    15
100
AcDbSpline
210
0.0
220
0.0
230
1.0
 70
     8
 71
     3
 72
    27
 73
    23
 74
     0
 42
0.000000001
 43
0.00000001
 40
0.032345381771867
 40
0.032345381771867
 40
0.032345381771867
 40
0.032345381771867
 40
0.1910182875950168
 40
0.2762943093751701
 40
0.3547482498533902
 40
0.4263801090733774
 40
0.4911898870926277
 40
0.5491775839889351
 40
0.6003431998712043
 40
0.6446867348986105
 40
0.6822081893171481
 40
0.7129075635368087
 40
0.7276688307689431
 40
0.7390160530571976
 40
0.7501387039563698
 40
0.7610582688668541
 40
0.7928609494127598
 40
0.8240378975274862
 40
0.8561523620376948
 40
0.8917047769673203
 40
0.9340264297089187
 40
1.0
 40
1.0
 40
1.0
 40
1.0
 10
-18.12893816585868
 20
-5.851845946234679
 30
0.0
 10
-18.00503788883584
 20
-5.720820117453131
 30
0.0
 10
-17.80860773998159
 20
-5.52496185858736
 30
0.0
 10
-17.53619132481083
 20
-5.279824136557681
 30
0.0
 10
-17.33079422327695
 20
-5.108399385455624
 30
0.0
 10
-17.13756132844658
 20
-4.958970293834079
 30
0.0
 10
-16.95782158849622
 20
-4.830372541992427
 30
0.0
 10
-16.7928350159147
 20
-4.721369314076908
 30
0.0
 10
-16.64378244969007
 20
-4.630673337342017
 30
0.0
 10
-16.51178375642481
 20
-4.556896527828963
 30
0.0
 10
-16.39783156603614
 20
-4.498716168161405
 30
0.0
 10
-16.3123615913213
 20
-4.458795360982033
 30
0.0
 10
-16.25292955742297
 20
-4.433580868764798
 30
0.0
 10
-16.21407062334829
 20
-4.416836912616779
 30
0.0
 10
-16.17967966424298
 20
-4.400788626879974
 30
0.0
 10
-16.12489171302127
 20
-4.373533438989654
 30
0.0
 10
-16.05175954569935
 20
-4.331987948547276
 30
0.0
 10
-15.96353726367996
 20
-4.269186020093696
 30
0.0
 10
-15.88099032137291
 20
-4.192391512684876
 30
0.0
 10
-15.80529061958058
 20
-4.091892077458246
 30
0.0
 10
-15.74012980598759
 20
-3.939537020131566
 30
0.0
 10
-15.73868616757341
 20
-3.811790128244817
 30
0.0
 10
-15.7549567317391
 20
-3.738769133154471
 30
0.0
  0
ARC
  5
A6
330
1F
100
AcDbEntity
  8
0
  6
Continuous
 62
     7
370
    15
100
AcDbCircle
 10
0.0
 20
0.0
 30
0.0
 40
19.04999999999988
100
AcDbArc
 50
197.8895776896
 51
200.6818508818
  0
SPLINE
  5
A7
330
1F
100
AcDbEntity
  8
0
  6
Continuous
 62
     7
370
    15
100
AcDbSpline
210
0.0
220
0.0
230
1.0
 70
     8
 71
     3
 72
    27
 73
    23
 74
     0
 42
0.000000001
 43
0.00000001
 40
0.0
 40
0.0
 40
0.0
 40
0.0
 40
0.0659735702910813
 40
0.1082952230326797
 40
0.1438476379623052
 40
0.1759621024725138
 40
0.2071390505872402
 40
0.2389417311331459
 40
0.2498612960436302
 40
0.2609839469428024
 40
0.2723311692310569
 40
0.2870924364631913
 40
0.3177918106828519
 40
0.3553132651013895
 40
0.3996568001287957
 40
0.4508224160110649
 40
0.5088101129073723
 40
0.5736198909266226
 40
0.6452517501466098
 40
0.7237056906248298
 40
0.8089817124049832
 40
0.9676546182281335
 40
0.9676546182281335
 40
0.9676546182281335
 40
0.9676546182281335
 10
-14.64880560381955
 20
-6.899967436988748
 30
0.0
 10
-14.68161261027771
 20
-6.832732793318179
 30
0.0
 10
-14.76239017654979
 20
-6.73375634528252
 30
0.0
 10
-14.90832677654482
 20
-6.655267467707381
 30
0.0
 10
-15.03017155957589
 20
-6.623891837348242
 30
0.0
 10
-15.14258995006117
 20
-6.615318650478491
 30
0.0
 10
-15.25072126952698
 20
-6.621223818789605
 30
0.0
 10
-15.33380148992441
 20
-6.634339406920242
 30
0.0
 10
-15.39362976674682
 20
-6.647190171818493
 30
0.0
 10
-15.43052364378183
 20
-6.656085529068126
 30
0.0
 10
-15.47134446771762
 20
-6.667222726117213
 30
0.0
 10
-15.53353128164293
 20
-6.684564509326683
 30
0.0
 10
-15.62524461483904
 20
-6.706642823068163
 30
0.0
 10
-15.75061088570229
 20
-6.732203614825586
 30
0.0
 10
-15.89981070808676
 20
-6.756822421581838
 30
0.0
 10
-16.07289271346766
 20
-6.778846206619293
 30
0.0
 10
-16.26984681107138
 20
-6.796491496792548
 30
0.0
 10
-16.49055238523042
 20
-6.808015620675985
 30
0.0
 10
-16.73479546058428
 20
-6.811665991760093
 30
0.0
 10
-17.00226296506946
 20
-6.805703722612043
 30
0.0
 10
-17.36808756452744
 20
-6.783896190706726
 30
0.0
 10
-17.64377846602019
 20
-6.753240232412375
 30
0.0
 10
-17.82234087130854
 20
-6.72805067362575
 30
0.0
  0
ARC
  5
A8
330
1F
100
AcDbEntity
  8
0
  6
Continuous
 62
     7
370
    15
100
AcDbCircle
 10
0.0
 20
0.0
 30
0.0
 40
16.1925
100
AcDbArc
 50
205.2216520052
 51
206.2069194234
  0
SPLINE
  5
A9
330
1F
100
AcDbEntity
  8
0
  6
Continuous
 62
     7
370
    15
100
AcDbSpline
210
0.0
220
0.0
230
1.0
 70
     8
 71
     3
 72
    27
 73
    23
 74
     0
 42
0.000000001
 43
0.00000001
 40
0.0323453817718665
 40
0.0323453817718665
 40
0.0323453817718665
 40
0.0323453817718665
 40
0.1910182875950168
 40
0.2762943093751701
 40
0.3547482498533902
 40
0.4263801090733774
 40
0.4911898870926277
 40
0.5491775839889351
 40
0.6003431998712043
 40
0.6446867348986105
 40
0.6822081893171481
 40
0.7129075635368087
 40
0.7276688307689431
 40
0.7390160530571976
 40
0.7501387039563698
 40
0.7610582688668541
 40
0.7928609494127598
 40
0.8240378975274862
 40
0.8561523620376948
 40
0.8917047769673203
 40
0.9340264297089187
 40
1.0
 40
1.0
 40
1.0
 40
1.0
 10
-16.37224961078923
 20
-9.73919620307564
 30
0.0
 10
-16.28061176218548
 20
-9.58388506001918
 30
0.0
 10
-16.13268908995931
 20
-9.349227556439377
 30
0.0
 10
-15.92165099792679
 20
-9.049617593775142
 30
0.0
 10
-15.75954922627863
 20
-8.836785664221685
 30
0.0
 10
-15.60441218458468
 20
-8.648104707679126
 30
0.0
 10
-15.45779458702326
 20
-8.482735315162047
 30
0.0
 10
-15.32120007235834
 20
-8.339752059528198
 30
0.0
 10
-15.19606631861275
 20
-8.218162704041866
 30
0.0
 10
-15.08379399273408
 20
-8.116863160669467
 30
0.0
 10
-14.98564516964105
 20
-8.034784756257134
 30
0.0
 10
-14.91120132093592
 20
-7.976845988462363
 30
0.0
 10
-14.85887012456812
 20
-7.939038804518311
 30
0.0
 10
-14.82471134586126
 20
-7.914067728006413
 30
0.0
 10
-14.79475371943335
 20
-7.890769097959166
 30
0.0
 10
-14.74740426640055
 20
-7.852005788457723
 30
0.0
 10
-14.68535041653498
 20
-7.795228492025442
 30
0.0
 10
-14.61331479509164
 20
-7.714369834446487
 30
0.0
 10
-14.54992586248257
 20
-7.621132302973972
 30
0.0
 10
-14.4984873384501
 20
-7.506307830069977
 30
0.0
 10
-14.46886243214712
 20
-7.343272987022068
 30
0.0
 10
-14.49588134645469
 20
-7.218407736658983
 30
0.0
 10
-14.5279926736327
 20
-7.150838071504261
 30
0.0
  0
ARC
  5
AA
330
1F
100
AcDbEntity
  8
0
  6
Continuous
 62
     7
370
    15
100
AcDbCircle
 10
0.0
 20
0.0
 30
0.0
 40
19.04999999999988
100
AcDbArc
 50
210.7467205468
 51
213.5389937389
  0
SPLINE
  5
AB
330
1F
100
AcDbEntity
  8
0
  6
Continuous
 62
     7
370
    15
100
AcDbSpline
210
0.0
220
0.0
230
1.0
 70
     8
 71
     3
 72
    27
 73
    23
 74
     0
 42
0.000000001
 43
0.00000001
 40
0.0
 40
0.0
 40
0.0
 40
0.0
 40
0.0659735702910813
 40
0.1082952230326797
 40
0.1438476379623052
 40
0.1759621024725138
 40
0.2071390505872402
 40
0.2389417311331459
 40
0.2498612960436302
 40
0.2609839469428024
 40
0.2723311692310569
 40
0.2870924364631913
 40
0.3177918106828519
 40
0.3553132651013895
 40
0.3996568001287957
 40
0.4508224160110649
 40
0.5088101129073723
 40
0.5736198909266226
 40
0.6452517501466098
 40
0.7237056906248298
 40
0.8089817124049832
 40
0.9676546182281328
 40
0.9676546182281328
 40
0.9676546182281328
 40
0.9676546182281328
 10
-12.74614226494215
 20
-9.986636751772611
 30
0.0
 10
-12.79308784695713
 20
-9.928388066709955
 30
0.0
 10
-12.89386448265048
 20
-9.84986786436096
 30
0.0
 10
-13.05360756573775
 20
-9.805820815346443
 30
0.0
 10
-13.17937918023946
 20
-9.802344852464795
 30
0.0
 10
-13.29088672051536
 20
-9.819002058533778
 30
0.0
 10
-13.39499293847586
 20
-9.848820654143873
 30
0.0
 10
-13.47307167137132
 20
-9.880094495333248
 30
0.0
 10
-13.52854036417602
 20
-9.905936108760962
 30
0.0
 10
-13.56252983148299
 20
-9.922818100807557
 30
0.0
 10
-13.59984893264723
 20
-9.94275955294124
 30
0.0
 10
-13.65661768351644
 20
-9.97350440935359
 30
0.0
 10
-13.74111868497462
 20
-10.01543731023311
 30
0.0
 10
-13.85765395043082
 20
-10.068253859254
 30
0.0
 10
-13.99763482189372
 20
-10.12545550494839
 30
0.0
 10
-14.16147654682017
 20
-10.18544147720169
 30
0.0
 10
-14.34956614754334
 20
-10.24647077285545
 30
0.0
 10
-14.56217381335553
 20
-10.30681757338409
 30
0.0
 10
-14.79948092089221
 20
-10.36472561928392
 30
0.0
 10
-15.06156918631575
 20
-10.41842995557255
 30
0.0
 10
-15.42307443165693
 20
-10.47857281555785
 30
0.0
 10
-15.69867477912776
 20
-10.51003246302544
 30
0.0
 10
-15.87836545625685
 20
-10.52520833226307
 30
0.0
  0
ARC
  5
AC
330
1F
100
AcDbEntity
  8
0
  6
Continuous
 62
     7
370
    15
100
AcDbCircle
 10
0.0
 20
0.0
 30
0.0
 40
16.1925
100
AcDbArc
 50
218.0787948623
 51
219.0640622805
  0
SPLINE
  5
AD
330
1F
100
AcDbEntity
  8
0
  6
Continuous
 62
     7
370
    15
100
AcDbSpline
210
0.0
220
0.0
230
1.0
 70
     8
 71
     3
 72
    27
 73
    23
 74
     0
 42
0.000000001
 43
0.00000001
 40
0.0323453817718668
 40
0.0323453817718668
 40
0.0323453817718668
 40
0.0323453817718668
 40
0.1910182875950168
 40
0.2762943093751701
 40
0.3547482498533902
 40
0.4263801090733774
 40
0.4911898870926277
 40
0.5491775839889351
 40
0.6003431998712043
 40
0.6446867348986105
 40
0.6822081893171481
 40
0.7129075635368087
 40
0.7276688307689431
 40
0.7390160530571976
 40
0.7501387039563698
 40
0.7610582688668541
 40
0.7928609494127598
 40
0.8240378975274862
 40
0.8561523620376948
 40
0.8917047769673203
 40
0.9340264297089187
 40
1.0
 40
1.0
 40
1.0
 40
1.0
 10
-13.79458809567403
 20
-13.1381824949526
 30
0.0
 10
-13.73980777986469
 20
-12.96637398685694
 30
0.0
 10
-13.64781004472332
 20
-12.704683945637
 30
0.0
 10
-13.50873260698189
 20
-12.36562543692845
 30
0.0
 10
-13.39805462492794
 20
-12.12205861058014
 30
0.0
 10
-13.28879265543682
 20
-11.90358704014068
 30
0.0
 10
-13.18264921882784
 20
-11.70973831881143
 30
0.0
 10
-13.08129618141384
 20
-11.53994481294281
 30
0.0
 10
-12.98635596907314
 20
-11.39355907670205
 30
0.0
 10
-12.89943981380903
 20
-11.26981638156506
 30
0.0
 10
-12.82201594983532
 20
-11.16795568633476
 30
0.0
 10
-12.76233115256442
 20
-11.09490424967304
 30
0.0
 10
-12.71972489842907
 20
-11.04640018407417
 30
0.0
 10
-12.69197913888903
 20
-11.01445414124484
 30
0.0
 10
-12.66795704561976
 20
-10.98507345748433
 30
0.0
 10
-12.63042039006505
 20
-10.93674578057165
 30
0.0
 10
-12.58255649680238
 20
-10.86758372887392
 30
0.0
 10
-12.53031970278883
 20
-10.77272293289695
 30
0.0
 10
-12.48926736564789
 20
-10.6677176965148
 30
0.0
 10
-12.46466936175883
 20
-10.54432596447009
 30
0.0
 10
-12.47206587925073
 20
-10.3787865835056
 30
0.0
 10
-12.52619250509552
 20
-10.26306423971126
 30
0.0
 10
-12.5725343992559
 20
-10.20433412964937
 30
0.0
  0
ARC
  5
AE
330
1F
100
AcDbEntity
  8
0
  6
Continuous
 62
     7
370
    15
100
AcDbCircle
 10
0.0
 20
0.0
 30
0.0
 40
19.04999999999988
100
AcDbArc
 50
223.6038634039
 51
226.3961365961
  0
SPLINE
  5
AF
330
1F
100
AcDbEntity
  8
0
  6
Continuous
 62
     7
370
    15
100
AcDbSpline
210
0.0
220
0.0
230
1.0
 70
     8
 71
     3
 72
    27
 73
    23
 74
     0
 42
0.000000001
 43
0.00000001
 40
0.0
 40
0.0
 40
0.0
 40
0.0
 40
0.0659735702910813
 40
0.1082952230326797
 40
0.1438476379623052
 40
0.1759621024725138
 40
0.2071390505872402
 40
0.2389417311331459
 40
0.2498612960436302
 40
0.2609839469428024
 40
0.2723311692310569
 40
0.2870924364631913
 40
0.3177918106828519
 40
0.3553132651013895
 40
0.3996568001287957
 40
0.4508224160110649
 40
0.5088101129073723
 40
0.5736198909266226
 40
0.6452517501466098
 40
0.7237056906248298
 40
0.8089817124049832
 40
0.9676546182281324
 40
0.9676546182281324
 40
0.9676546182281324
 40
0.9676546182281324
 10
-10.20433412964547
 20
-12.57253439925907
 30
0.0
 10
-10.26306423970737
 20
-12.5261925050987
 30
0.0
 10
-10.37878658350173
 20
-12.47206587925396
 30
0.0
 10
-10.54432596446623
 20
-12.4646693617621
 30
0.0
 10
-10.66771769651093
 20
-12.48926736565119
 30
0.0
 10
-10.77272293289307
 20
-12.53031970279218
 30
0.0
 10
-10.86758372887002
 20
-12.58255649680575
 30
0.0
 10
-10.93674578056773
 20
-12.63042039006844
 30
0.0
 10
-10.9850734574804
 20
-12.66795704562317
 30
0.0
 10
-11.0144541412409
 20
-12.69197913889245
 30
0.0
 10
-11.04640018407023
 20
-12.7197248984325
 30
0.0
 10
-11.09490424966909
 20
-12.76233115256786
 30
0.0
 10
-11.16795568633078
 20
-12.82201594983878
 30
0.0
 10
-11.26981638156106
 20
-12.89943981381253
 30
0.0
 10
-11.39355907669803
 20
-12.98635596907667
 30
0.0
 10
-11.53994481293876
 20
-13.08129618141743
 30
0.0
 10
-11.70973831880734
 20
-13.18264921883147
 30
0.0
 10
-11.90358704013656
 20
-13.28879265544051
 30
0.0
 10
-12.12205861057599
 20
-13.39805462493169
 30
0.0
 10
-12.36562543692426
 20
-13.50873260698573
 30
0.0
 10
-12.70468394563277
 20
-13.64781004472727
 30
0.0
 10
-12.96637398685267
 20
-13.73980777986871
 30
0.0
 10
-13.13818249494832
 20
-13.79458809567811
 30
0.0
  0
ARC
  5
B0
330
1F
100
AcDbEntity
  8
0
  6
Continuous
 62
     7
370
    15
100
AcDbCircle
 10
0.0
 20
0.0
 30
0.0
 40
16.1925
100
AcDbArc
 50
230.9359377195
 51
231.9212051377
  0
SPLINE
  5
B1
330
1F
100
AcDbEntity
  8
0
  6
Continuous
 62
     7
370
    15
100
AcDbSpline
210
0.0
220
0.0
230
1.0
 70
     8
 71
     3
 72
    27
 73
    23
 74
     0
 42
0.000000001
 43
0.00000001
 40
0.0323453817718651
 40
0.0323453817718651
 40
0.0323453817718651
 40
0.0323453817718651
 40
0.1910182875950168
 40
0.2762943093751701
 40
0.3547482498533902
 40
0.4263801090733774
 40
0.4911898870926277
 40
0.5491775839889351
 40
0.6003431998712043
 40
0.6446867348986105
 40
0.6822081893171481
 40
0.7129075635368087
 40
0.7276688307689431
 40
0.7390160530571976
 40
0.7501387039563698
 40
0.7610582688668541
 40
0.7928609494127598
 40
0.8240378975274862
 40
0.8561523620376948
 40
0.8917047769673203
 40
0.9340264297089187
 40
1.0
 40
1.0
 40
1.0
 40
1.0
 10
-10.52520833225814
 20
-15.87836545626012
 30
0.0
 10
-10.51003246302057
 20
-15.69867477913103
 30
0.0
 10
-10.47857281555306
 20
-15.42307443166017
 30
0.0
 10
-10.41842995556788
 20
-15.06156918631898
 30
0.0
 10
-10.36472561927933
 20
-14.79948092089543
 30
0.0
 10
-10.30681757337957
 20
-14.56217381335873
 30
0.0
 10
-10.246470772851
 20
-14.34956614754652
 30
0.0
 10
-10.18544147719729
 20
-14.16147654682332
 30
0.0
 10
-10.12545550494405
 20
-13.99763482189686
 30
0.0
 10
-10.0682538592497
 20
-13.85765395043394
 30
0.0
 10
-10.01543731022885
 20
-13.74111868497773
 30
0.0
 10
-9.973504409349351
 20
-13.65661768351953
 30
0.0
 10
-9.942759552937025
 20
-13.59984893265032
 30
0.0
 10
-9.922818100803351
 20
-13.56252983148607
 30
0.0
 10
-9.905936108756764
 20
-13.52854036417909
 30
0.0
 10
-9.880094495329072
 20
-13.47307167137438
 30
0.0
 10
-9.848820654139722
 20
-13.39499293847891
 30
0.0
 10
-9.819002058529657
 20
-13.2908867205184
 30
0.0
 10
-9.802344852460712
 20
-13.1793791802425
 30
0.0
 10
-9.805820815342393
 20
-13.0536075657408
 30
0.0
 10
-9.849867864356957
 20
-12.89386448265353
 30
0.0
 10
-9.928388066705992
 20
-12.79308784696022
 30
0.0
 10
-9.986636751768659
 20
-12.74614226494525
 30
0.0
  0
ARC
  5
B2
330
1F
100
AcDbEntity
  8
0
  6
Continuous
 62
     7
370
    15
100
AcDbCircle
 10
0.0
 20
0.0
 30
0.0
 40
19.04999999999988
100
AcDbArc
 50
236.4610062611
 51
239.2532794532
  0
SPLINE
  5
B3
330
1F
100
AcDbEntity
  8
0
  6
Continuous
 62
     7
370
    15
100
AcDbSpline
210
0.0
220
0.0
230
1.0
 70
     8
 71
     3
 72
    27
 73
    23
 74
     0
 42
0.000000001
 43
0.00000001
 40
0.0
 40
0.0
 40
0.0
 40
0.0
 40
0.0659735702910813
 40
0.1082952230326797
 40
0.1438476379623052
 40
0.1759621024725138
 40
0.2071390505872402
 40
0.2389417311331459
 40
0.2498612960436302
 40
0.2609839469428024
 40
0.2723311692310569
 40
0.2870924364631913
 40
0.3177918106828519
 40
0.3553132651013895
 40
0.3996568001287957
 40
0.4508224160110649
 40
0.5088101129073723
 40
0.5736198909266226
 40
0.6452517501466098
 40
0.7237056906248298
 40
0.8089817124049832
 40
0.9676546182281349
 40
0.9676546182281349
 40
0.9676546182281349
 40
0.9676546182281349
 10
-7.150838071499747
 20
-14.52799267363492
 30
0.0
 10
-7.218407736654477
 20
-14.49588134645693
 30
0.0
 10
-7.343272987017574
 20
-14.4688624321494
 30
0.0
 10
-7.506307830065469
 20
-14.49848733845243
 30
0.0
 10
-7.621132302969449
 20
-14.54992586248494
 30
0.0
 10
-7.714369834441945
 20
-14.61331479509403
 30
0.0
 10
-7.795228492020878
 20
-14.6853504165374
 30
0.0
 10
-7.852005788453138
 20
-14.74740426640299
 30
0.0
 10
-7.890769097954567
 20
-14.7947537194358
 30
0.0
 10
-7.914067728001805
 20
-14.82471134586372
 30
0.0
 10
-7.93903880451369
 20
-14.85887012457058
 30
0.0
 10
-7.976845988457731
 20
-14.9112013209384
 30
0.0
 10
-8.034784756252476
 20
-14.98564516964355
 30
0.0
 10
-8.116863160664781
 20
-15.08379399273661
 30
0.0
 10
-8.218162704037143
 20
-15.19606631861529
 30
0.0
 10
-8.33975205952344
 20
-15.32120007236094
 30
0.0
 10
-8.482735315157244
 20
-15.45779458702589
 30
0.0
 10
-8.648104707674277
 20
-15.60441218458737
 30
0.0
 10
-8.836785664216785
 20
-15.75954922628137
 30
0.0
 10
-9.049617593770193
 20
-15.9216509979296
 30
0.0
 10
-9.34922755643437
 20
-16.13268908996222
 30
0.0
 10
-9.583885060014124
 20
-16.28061176218845
 30
0.0
 10
-9.739196203070556
 20
-16.37224961079225
 30
0.0
  0
ARC
  5
B4
330
1F
100
AcDbEntity
  8
0
  6
Continuous
 62
     7
370
    15
100
AcDbCircle
 10
0.0
 20
0.0
 30
0.0
 40
16.1925
100
AcDbArc
 50
243.7930805766
 51
244.7783479948
  0
SPLINE
  5
B5
330
1F
100
AcDbEntity
  8
0
  6
Continuous
 62
     7
370
    15
100
AcDbSpline
210
0.0
220
0.0
230
1.0
 70
     8
 71
     3
 72
    27
 73
    23
 74
     0
 42
0.000000001
 43
0.00000001
 40
0.0323453817718669
 40
0.0323453817718669
 40
0.0323453817718669
 40
0.0323453817718669
 40
0.1910182875950168
 40
0.2762943093751701
 40
0.3547482498533902
 40
0.4263801090733774
 40
0.4911898870926277
 40
0.5491775839889351
 40
0.6003431998712043
 40
0.6446867348986105
 40
0.6822081893171481
 40
0.7129075635368087
 40
0.7276688307689431
 40
0.7390160530571976
 40
0.7501387039563698
 40
0.7610582688668541
 40
0.7928609494127598
 40
0.8240378975274862
 40
0.8561523620376948
 40
0.8917047769673203
 40
0.9340264297089187
 40
1.0
 40
1.0
 40
1.0
 40
1.0
 10
-6.728050673620213
 20
-17.82234087131063
 30
0.0
 10
-6.753240232406894
 20
-17.64377846602228
 30
0.0
 10
-6.783896190701324
 20
-17.36808756452953
 30
0.0
 10
-6.80570372260676
 20
-17.00226296507157
 30
0.0
 10
-6.811665991754891
 20
-16.73479546058639
 30
0.0
 10
-6.808015620670858
 20
-16.49055238523253
 30
0.0
 10
-6.796491496787493
 20
-16.26984681107349
 30
0.0
 10
-6.778846206614294
 20
-16.07289271346975
 30
0.0
 10
-6.756822421576897
 20
-15.89981070808886
 30
0.0
 10
-6.73220361482069
 20
-15.75061088570437
 30
0.0
 10
-6.706642823063309
 20
-15.62524461484113
 30
0.0
 10
-6.684564509321855
 20
-15.53353128164501
 30
0.0
 10
-6.667222726112406
 20
-15.47134446771969
 30
0.0
 10
-6.65608552906333
 20
-15.4305236437839
 30
0.0
 10
-6.64719017181371
 20
-15.39362976674888
 30
0.0
 10
-6.634339406915478
 20
-15.33380148992647
 30
0.0
 10
-6.621223818784865
 20
-15.25072126952903
 30
0.0
 10
-6.615318650473785
 20
-15.14258995006322
 30
0.0
 10
-6.623891837343573
 20
-15.03017155957794
 30
0.0
 10
-6.655267467702748
 20
-14.90832677654689
 30
0.0
 10
-6.733756345277929
 20
-14.76239017655188
 30
0.0
 10
-6.832732793313617
 20
-14.68161261027983
 30
0.0
 10
-6.899967436984196
 20
-14.64880560382169
 30
0.0
  0
ARC
  5
B6
330
1F
100
AcDbEntity
  8
0
  6
Continuous
 62
     7
370
    15
100
AcDbCircle
 10
0.0
 20
0.0
 30
0.0
 40
19.04999999999988
100
AcDbArc
 50
249.3181491182
 51
252.1104223104
  0
SPLINE
  5
B7
330
1F
100
AcDbEntity
  8
0
  6
Continuous
 62
     7
370
    15
100
AcDbSpline
210
0.0
220
0.0
230
1.0
 70
     8
 71
     3
 72
    27
 73
    23
 74
     0
 42
0.000000001
 43
0.00000001
 40
0.0
 40
0.0
 40
0.0
 40
0.0
 40
0.0659735702910813
 40
0.1082952230326797
 40
0.1438476379623052
 40
0.1759621024725138
 40
0.2071390505872402
 40
0.2389417311331459
 40
0.2498612960436302
 40
0.2609839469428024
 40
0.2723311692310569
 40
0.2870924364631913
 40
0.3177918106828519
 40
0.3553132651013895
 40
0.3996568001287957
 40
0.4508224160110649
 40
0.5088101129073723
 40
0.5736198909266226
 40
0.6452517501466098
 40
0.7237056906248298
 40
0.8089817124049832
 40
0.9676546182281331
 40
0.9676546182281331
 40
0.9676546182281331
 40
0.9676546182281331
 10
-3.73876913314958
 20
-15.75495673174027
 30
0.0
 10
-3.81179012823993
 20
-15.73868616757458
 30
0.0
 10
-3.93953702012668
 20
-15.74012980598882
 30
0.0
 10
-4.091892077453338
 20
-15.80529061958185
 30
0.0
 10
-4.192391512679944
 20
-15.88099032137422
 30
0.0
 10
-4.26918602008874
 20
-15.96353726368128
 30
0.0
 10
-4.331987948542293
 20
-16.05175954570069
 30
0.0
 10
-4.373533438984646
 20
-16.12489171302263
 30
0.0
 10
-4.400788626874951
 20
-16.17967966424435
 30
0.0
 10
-4.416836912611745
 20
-16.21407062334966
 30
0.0
 10
-4.433580868759752
 20
-16.25292955742434
 30
0.0
 10
-4.458795360976969
 20
-16.31236159132269
 30
0.0
 10
-4.498716168156314
 20
-16.39783156603754
 30
0.0
 10
-4.556896527823838
 20
-16.51178375642623
 30
0.0
 10
-4.630673337336849
 20
-16.6437824496915
 30
0.0
 10
-4.721369314071696
 20
-16.79283501591618
 30
0.0
 10
-4.830372541987164
 20
-16.95782158849772
 30
0.0
 10
-4.958970293828759
 20
-17.13756132844813
 30
0.0
 10
-5.108399385450245
 20
-17.33079422327853
 30
0.0
 10
-5.279824136552238
 20
-17.53619132481246
 30
0.0
 10
-5.524961858581832
 20
-17.80860773998331
 30
0.0
 10
-5.720820117447543
 20
-18.00503788883762
 30
0.0
 10
-5.851845946229052
 20
-18.1289381658605
 30
0.0
  0
ARC
  5
B8
330
1F
100
AcDbEntity
  8
0
  6
Continuous
 62
     7
370
    15
100
AcDbCircle
 10
0.0
 20
0.0
 30
0.0
 40
16.1925
100
AcDbArc
 50
256.6502234338
 51
257.635490852
  0
SPLINE
  5
B9
330
1F
100
AcDbEntity
  8
0
  6
Continuous
 62
     7
370
    15
100
AcDbSpline
210
0.0
220
0.0
230
1.0
 70
     8
 71
     3
 72
    27
 73
    23
 74
     0
 42
0.000000001
 43
0.00000001
 40
0.0323453817718665
 40
0.0323453817718665
 40
0.0323453817718665
 40
0.0323453817718665
 40
0.1910182875950168
 40
0.2762943093751701
 40
0.3547482498533902
 40
0.4263801090733774
 40
0.4911898870926277
 40
0.5491775839889351
 40
0.6003431998712043
 40
0.6446867348986105
 40
0.6822081893171481
 40
0.7129075635368087
 40
0.7276688307689431
 40
0.7390160530571976
 40
0.7501387039563698
 40
0.7610582688668541
 40
0.7928609494127598
 40
0.8240378975274862
 40
0.8561523620376948
 40
0.8917047769673203
 40
0.9340264297089187
 40
1.0
 40
1.0
 40
1.0
 40
1.0
 10
-2.593520460313954
 20
-18.87262969545907
 30
0.0
 10
-2.657812337464885
 20
-18.7041494266243
 30
0.0
 10
-2.749046683764237
 20
-18.44219226409545
 30
0.0
 10
-2.851711086850228
 20
-18.09039228348803
 30
0.0
 10
-2.917040988363692
 20
-17.83095747746315
 30
0.0
 10
-2.967831336944153
 20
-17.59202580196064
 30
0.0
 10
-3.005707757398056
 20
-17.37428941852932
 30
0.0
 10
-3.032331281234968
 20
-17.17834692490759
 30
0.0
 10
-3.049374047958507
 20
-17.00470369354957
 30
0.0
 10
-3.058572569910385
 20
-16.85376642234209
 30
0.0
 10
-3.061549260247759
 20
-16.72585553437685
 30
0.0
 10
-3.060432632486356
 20
-16.63152875893078
 30
0.0
 10
-3.057363511902889
 20
-16.56704218846911
 30
0.0
 10
-3.055589035503336
 20
-16.52476656832683
 30
0.0
 10
-3.055126363406952
 20
-16.48681829461373
 30
0.0
 10
-3.055910838050301
 20
-16.42563047339461
 30
0.0
 10
-3.061611173333222
 20
-16.34171475465871
 30
0.0
 10
-3.079915542118079
 20
-16.2349804895627
 30
0.0
 10
-3.113289226538437
 20
-16.12728837638529
 30
0.0
 10
-3.170991219255673
 20
-16.01548023102557
 30
0.0
 10
-3.27998616532884
 20
-15.89066798462474
 30
0.0
 10
-3.394455766657021
 20
-15.83394001224459
 30
0.0
 10
-3.467304943154444
 20
-15.81691666163721
 30
0.0
  0
ARC
  5
BA
330
1F
100
AcDbEntity
  8
0
  6
Continuous
 62
     7
370
    15
100
AcDbCircle
 10
0.0
 20
0.0
 30
0.0
 40
19.04999999999988
100
AcDbArc
 50
262.1752919754
 51
264.9675651675
  0
SPLINE
  5
BB
330
1F
100
AcDbEntity
  8
0
  6
Continuous
 62
     7
370
    15
100
AcDbSpline
210
0.0
220
0.0
230
1.0
 70
     8
 71
     3
 72
    27
 73
    23
 74
     0
 42
0.000000001
 43
0.00000001
 40
0.0
 40
0.0
 40
0.0
 40
0.0
 40
0.0659735702910813
 40
0.1082952230326797
 40
0.1438476379623052
 40
0.1759621024725138
 40
0.2071390505872402
 40
0.2389417311331459
 40
0.2498612960436302
 40
0.2609839469428024
 40
0.2723311692310569
 40
0.2870924364631913
 40
0.3177918106828519
 40
0.3553132651013895
 40
0.3996568001287957
 40
0.4508224160110649
 40
0.5088101129073723
 40
0.5736198909266226
 40
0.6452517501466098
 40
0.7237056906248298
 40
0.8089817124049832
 40
0.9676546182281328
 40
0.9676546182281328
 40
0.9676546182281328
 40
0.9676546182281328
 10
-0.1392226987263116
 20
-16.19190147234596
 30
0.0
 10
-0.2140334461493283
 20
-16.19228754521981
 30
0.0
 10
-0.3382562169759706
 20
-16.22212134629757
 30
0.0
 10
-0.4722917698277353
 20
-16.31955063189917
 30
0.0
 10
-0.5534267060456304
 20
-16.41571561230907
 30
0.0
 10
-0.609927392123332
 20
-16.5132813159408
 30
0.0
 10
-0.6515234405208468
 20
-16.61326642493164
 30
0.0
 10
-0.6757538606036713
 20
-16.69380975746704
 30
0.0
 10
-0.6901342379542902
 20
-16.75328891022886
 30
0.0
 10
-0.6981274513219997
 20
-16.79038869571788
 30
0.0
 10
-0.7058046752282026
 20
-16.8319992359451
 30
0.0
 10
-0.717162115792289
 20
-16.89555193702774
 30
0.0
 10
-0.7370631663895069
 20
-16.98776221632855
 30
0.0
 10
-0.7684280751385184
 20
-17.11180373536387
 30
0.0
 10
-0.8109826734981005
 20
-17.25690983035686
 30
0.0
 10
-0.8662373964946282
 20
-17.42240709100073
 30
0.0
 10
-0.935794719686274
 20
-17.60751260582568
 30
0.0
 10
-1.021172402597686
 20
-17.81136158707609
 30
0.0
 10
-1.123856630682745
 20
-18.03300083082578
 30
0.0
 10
-1.245278250505695
 20
-18.27139379391088
 30
0.0
 10
-1.423651502912229
 20
-18.59152843565137
 30
0.0
 10
-1.570889366131551
 20
-18.82661623324929
 30
0.0
 10
-1.671059698466853
 20
-18.97656606143878
 30
0.0
  0
ARC
  5
BC
330
1F
100
AcDbEntity
  8
0
  6
Continuous
 62
     7
370
    15
100
AcDbCircle
 10
0.0
 20
0.0
 30
0.0
 40
16.1925
100
AcDbArc
 50
269.5073662909
 51
270.4926337091
  0
SPLINE
  5
BD
330
1F
100
AcDbEntity
  8
0
  6
Continuous
 62
     7
370
    15
100
AcDbSpline
210
0.0
220
0.0
230
1.0
 70
     8
 71
     3
 72
    27
 73
    23
 74
     0
 42
0.000000001
 43
0.00000001
 40
0.0323453817718654
 40
0.0323453817718654
 40
0.0323453817718654
 40
0.0323453817718654
 40
0.1910182875950168
 40
0.2762943093751701
 40
0.3547482498533902
 40
0.4263801090733774
 40
0.4911898870926277
 40
0.5491775839889351
 40
0.6003431998712043
 40
0.6446867348986105
 40
0.6822081893171481
 40
0.7129075635368087
 40
0.7276688307689431
 40
0.7390160530571976
 40
0.7501387039563698
 40
0.7610582688668541
 40
0.7928609494127598
 40
0.8240378975274862
 40
0.8561523620376948
 40
0.8917047769673203
 40
0.9340264297089187
 40
1.0
 40
1.0
 40
1.0
 40
1.0
 10
1.671059698466856
 20
-18.9765660614388
 30
0.0
 10
1.570889366131553
 20
-18.82661623324929
 30
0.0
 10
1.423651502912231
 20
-18.59152843565136
 30
0.0
 10
1.245278250505695
 20
-18.27139379391088
 30
0.0
 10
1.123856630682745
 20
-18.03300083082578
 30
0.0
 10
1.021172402597686
 20
-17.81136158707608
 30
0.0
 10
0.9357947196862737
 20
-17.60751260582568
 30
0.0
 10
0.8662373964946282
 20
-17.42240709100072
 30
0.0
 10
0.8109826734981006
 20
-17.25690983035686
 30
0.0
 10
0.7684280751385184
 20
-17.11180373536386
 30
0.0
 10
0.7370631663895069
 20
-16.98776221632856
 30
0.0
 10
0.717162115792289
 20
-16.89555193702773
 30
0.0
 10
0.7058046752282028
 20
-16.8319992359451
 30
0.0
 10
0.6981274513219998
 20
-16.79038869571788
 30
0.0
 10
0.6901342379542902
 20
-16.75328891022886
 30
0.0
 10
0.675753860603671
 20
-16.69380975746705
 30
0.0
 10
0.6515234405208467
 20
-16.61326642493164
 30
0.0
 10
0.6099273921233319
 20
-16.5132813159408
 30
0.0
 10
0.5534267060456304
 20
-16.41571561230908
 30
0.0
 10
0.4722917698277353
 20
-16.31955063189917
 30
0.0
 10
0.3382562169759706
 20
-16.22212134629757
 30
0.0
 10
0.2140334461493284
 20
-16.19228754521981
 30
0.0
 10
0.1392226987263116
 20
-16.19190147234596
 30
0.0
  0
ARC
  5
BE
330
1F
100
AcDbEntity
  8
0
  6
Continuous
 62
     7
370
    15
100
AcDbCircle
 10
0.0
 20
0.0
 30
0.0
 40
19.04999999999988
100
AcDbArc
 50
275.0324348325
 51
277.8247080247
  0
SPLINE
  5
BF
330
1F
100
AcDbEntity
  8
0
  6
Continuous
 62
     7
370
    15
100
AcDbSpline
210
0.0
220
0.0
230
1.0
 70
     8
 71
     3
 72
    27
 73
    23
 74
     0
 42
0.000000001
 43
0.00000001
 40
0.0
 40
0.0
 40
0.0
 40
0.0
 40
0.0659735702910813
 40
0.1082952230326797
 40
0.1438476379623052
 40
0.1759621024725138
 40
0.2071390505872402
 40
0.2389417311331459
 40
0.2498612960436302
 40
0.2609839469428024
 40
0.2723311692310569
 40
0.2870924364631913
 40
0.3177918106828519
 40
0.3553132651013895
 40
0.3996568001287957
 40
0.4508224160110649
 40
0.5088101129073723
 40
0.5736198909266226
 40
0.6452517501466098
 40
0.7237056906248298
 40
0.8089817124049832
 40
0.9676546182281331
 40
0.9676546182281331
 40
0.9676546182281331
 40
0.9676546182281331
 10
3.467304943160993
 20
-15.81691666163577
 30
0.0
 10
3.394455766663577
 20
-15.83394001224317
 30
0.0
 10
3.279986165335422
 20
-15.89066798462338
 30
0.0
 10
3.170991219262305
 20
-16.01548023102426
 30
0.0
 10
3.113289226545115
 20
-16.127288376384
 30
0.0
 10
3.079915542124802
 20
-16.23498048956142
 30
0.0
 10
3.061611173339988
 20
-16.34171475465745
 30
0.0
 10
3.055910838057102
 20
-16.42563047339334
 30
0.0
 10
3.055126363413779
 20
-16.48681829461246
 30
0.0
 10
3.055589035510178
 20
-16.52476656832556
 30
0.0
 10
3.057363511909748
 20
-16.56704218846784
 30
0.0
 10
3.060432632493244
 20
-16.63152875892952
 30
0.0
 10
3.061549260254684
 20
-16.72585553437558
 30
0.0
 10
3.058572569917364
 20
-16.85376642234083
 30
0.0
 10
3.049374047965548
 20
-17.00470369354831
 30
0.0
 10
3.032331281242083
 20
-17.17834692490634
 30
0.0
 10
3.00570775740525
 20
-17.37428941852808
 30
0.0
 10
2.967831336951439
 20
-17.59202580195941
 30
0.0
 10
2.917040988371076
 20
-17.83095747746195
 30
0.0
 10
2.851711086857719
 20
-18.09039228348685
 30
0.0
 10
2.749046683771877
 20
-18.44219226409432
 30
0.0
 10
2.657812337472629
 20
-18.7041494266232
 30
0.0
 10
2.593520460321769
 20
-18.872629695458
 30
0.0
  0
ARC
  5
C0
330
1F
100
AcDbEntity
  8
0
  6
Continuous
 62
     7
370
    15
100
AcDbCircle
 10
0.0
 20
0.0
 30
0.0
 40
16.1925
100
AcDbArc
 50
282.3645091481
 51
283.3497765663
  0
SPLINE
  5
C1
330
1F
100
AcDbEntity
  8
0
  6
Continuous
 62
     7
370
    15
100
AcDbSpline
210
0.0
220
0.0
230
1.0
 70
     8
 71
     3
 72
    27
 73
    23
 74
     0
 42
0.000000001
 43
0.00000001
 40
0.0323453817718662
 40
0.0323453817718662
 40
0.0323453817718662
 40
0.0323453817718662
 40
0.1910182875950168
 40
0.2762943093751701
 40
0.3547482498533902
 40
0.4263801090733774
 40
0.4911898870926277
 40
0.5491775839889351
 40
0.6003431998712043
 40
0.6446867348986105
 40
0.6822081893171481
 40
0.7129075635368087
 40
0.7276688307689431
 40
0.7390160530571976
 40
0.7501387039563698
 40
0.7610582688668541
 40
0.7928609494127598
 40
0.8240378975274862
 40
0.8561523620376948
 40
0.8917047769673203
 40
0.9340264297089187
 40
1.0
 40
1.0
 40
1.0
 40
1.0
 10
5.851845946236559
 20
-18.12893816585807
 30
0.0
 10
5.720820117454997
 20
-18.00503788883525
 30
0.0
 10
5.524961858589204
 20
-17.80860773998101
 30
0.0
 10
5.279824136559498
 20
-17.53619132481028
 30
0.0
 10
5.10839938545742
 20
-17.33079422327641
 30
0.0
 10
4.958970293835853
 20
-17.13756132844607
 30
0.0
 10
4.830372541994186
 20
-16.95782158849572
 30
0.0
 10
4.721369314078648
 20
-16.79283501591421
 30
0.0
 10
4.630673337343741
 20
-16.64378244968959
 30
0.0
 10
4.556896527830674
 20
-16.51178375642434
 30
0.0
 10
4.498716168163105
 20
-16.39783156603567
 30
0.0
 10
4.458795360983723
 20
-16.31236159132083
 30
0.0
 10
4.433580868766483
 20
-16.25292955742251
 30
0.0
 10
4.416836912618459
 20
-16.21407062334783
 30
0.0
 10
4.400788626881651
 20
-16.17967966424252
 30
0.0
 10
4.373533438991324
 20
-16.12489171302082
 30
0.0
 10
4.331987948548939
 20
-16.0517595456989
 30
0.0
 10
4.269186020095351
 20
-15.96353726367952
 30
0.0
 10
4.192391512686521
 20
-15.88099032137248
 30
0.0
 10
4.091892077459883
 20
-15.80529061958016
 30
0.0
 10
3.939537020133197
 20
-15.74012980598719
 30
0.0
 10
3.811790128246447
 20
-15.73868616757301
 30
0.0
 10
3.738769133156104
 20
-15.75495673173872
 30
0.0
  0
ARC
  5
C2
330
1F
100
AcDbEntity
  8
0
  6
Continuous
 62
     7
370
    15
100
AcDbCircle
 10
0.0
 20
0.0
 30
0.0
 40
19.04999999999988
100
AcDbArc
 50
287.8895776897
 51
290.6818508818
  0
SPLINE
  5
C3
330
1F
100
AcDbEntity
  8
0
  6
Continuous
 62
     7
370
    15
100
AcDbSpline
210
0.0
220
0.0
230
1.0
 70
     8
 71
     3
 72
    27
 73
    23
 74
     0
 42
0.000000001
 43
0.00000001
 40
0.0
 40
0.0
 40
0.0
 40
0.0
 40
0.0659735702910813
 40
0.1082952230326797
 40
0.1438476379623052
 40
0.1759621024725138
 40
0.2071390505872402
 40
0.2389417311331459
 40
0.2498612960436302
 40
0.2609839469428024
 40
0.2723311692310569
 40
0.2870924364631913
 40
0.3177918106828519
 40
0.3553132651013895
 40
0.3996568001287957
 40
0.4508224160110649
 40
0.5088101129073723
 40
0.5736198909266226
 40
0.6452517501466098
 40
0.7237056906248298
 40
0.8089817124049832
 40
0.9676546182281334
 40
0.9676546182281334
 40
0.9676546182281334
 40
0.9676546182281334
 10
6.899967436990263
 20
-14.64880560381883
 30
0.0
 10
6.832732793319697
 20
-14.68161261027701
 30
0.0
 10
6.733756345284045
 20
-14.7623901765491
 30
0.0
 10
6.655267467708923
 20
-14.90832677654414
 30
0.0
 10
6.623891837349795
 20
-15.0301715595752
 30
0.0
 10
6.615318650480057
 20
-15.14258995006048
 30
0.0
 10
6.621223818791181
 20
-15.25072126952629
 30
0.0
 10
6.634339406921828
 20
-15.33380148992372
 30
0.0
 10
6.647190171820085
 20
-15.39362976674613
 30
0.0
 10
6.656085529069722
 20
-15.43052364378114
 30
0.0
 10
6.667222726118813
 20
-15.47134446771693
 30
0.0
 10
6.684564509328289
 20
-15.53353128164224
 30
0.0
 10
6.70664282306978
 20
-15.62524461483835
 30
0.0
 10
6.732203614827215
 20
-15.75061088570159
 30
0.0
 10
6.756822421583481
 20
-15.89981070808606
 30
0.0
 10
6.778846206620955
 20
-16.07289271346695
 30
0.0
 10
6.79649149679423
 20
-16.26984681107068
 30
0.0
 10
6.80801562067769
 20
-16.49055238522972
 30
0.0
 10
6.811665991761823
 20
-16.73479546058357
 30
0.0
 10
6.805703722613801
 20
-17.00226296506875
 30
0.0
 10
6.783896190708523
 20
-17.36808756452674
 30
0.0
 10
6.7532402324142
 20
-17.64377846601949
 30
0.0
 10
6.728050673627593
 20
-17.82234087130784
 30
0.0
  0
ARC
  5
C4
330
1F
100
AcDbEntity
  8
0
  6
Continuous
 62
     7
370
    15
100
AcDbCircle
 10
0.0
 20
0.0
 30
0.0
 40
16.1925
100
AcDbArc
 50
295.2216520052
 51
296.2069194234
  0
SPLINE
  5
C5
330
1F
100
AcDbEntity
  8
0
  6
Continuous
 62
     7
370
    15
100
AcDbSpline
210
0.0
220
0.0
230
1.0
 70
     8
 71
     3
 72
    27
 73
    23
 74
     0
 42
0.000000001
 43
0.00000001
 40
0.0323453817718659
 40
0.0323453817718659
 40
0.0323453817718659
 40
0.0323453817718659
 40
0.1910182875950168
 40
0.2762943093751701
 40
0.3547482498533902
 40
0.4263801090733774
 40
0.4911898870926277
 40
0.5491775839889351
 40
0.6003431998712043
 40
0.6446867348986105
 40
0.6822081893171481
 40
0.7129075635368087
 40
0.7276688307689431
 40
0.7390160530571976
 40
0.7501387039563698
 40
0.7610582688668541
 40
0.7928609494127598
 40
0.8240378975274862
 40
0.8561523620376948
 40
0.8917047769673203
 40
0.9340264297089187
 40
1.0
 40
1.0
 40
1.0
 40
1.0
 10
9.739196203077329
 20
-16.37224961078822
 30
0.0
 10
9.583885060020863
 20
-16.28061176218448
 30
0.0
 10
9.349227556441043
 20
-16.13268908995834
 30
0.0
 10
9.049617593776787
 20
-15.92165099792586
 30
0.0
 10
8.836785664223314
 20
-15.75954922627771
 30
0.0
 10
8.648104707680739
 20
-15.60441218458379
 30
0.0
 10
8.482735315163644
 20
-15.45779458702238
 30
0.0
 10
8.339752059529783
 20
-15.32120007235748
 30
0.0
 10
8.218162704043438
 20
-15.1960663186119
 30
0.0
 10
8.116863160671027
 20
-15.08379399273324
 30
0.0
 10
8.034784756258684
 20
-14.98564516964023
 30
0.0
 10
7.976845988463904
 20
-14.9112013209351
 30
0.0
 10
7.939038804519845
 20
-14.8588701245673
 30
0.0
 10
7.914067728007946
 20
-14.82471134586044
 30
0.0
 10
7.890769097960696
 20
-14.79475371943253
 30
0.0
 10
7.852005788459248
 20
-14.74740426639974
 30
0.0
 10
7.79522849202696
 20
-14.68535041653417
 30
0.0
 10
7.714369834447998
 20
-14.61331479509084
 30
0.0
 10
7.621132302975477
 20
-14.54992586248178
 30
0.0
 10
7.506307830071474
 20
-14.49848733844932
 30
0.0
 10
7.343272987023565
 20
-14.46886243214636
 30
0.0
 10
7.218407736660481
 20
-14.49588134645394
 30
0.0
 10
7.150838071505763
 20
-14.52799267363196
 30
0.0
  0
ARC
  5
C6
330
1F
100
AcDbEntity
  8
0
  6
Continuous
 62
     7
370
    15
100
AcDbCircle
 10
0.0
 20
0.0
 30
0.0
 40
19.04999999999988
100
AcDbArc
 50
300.7467205468
 51
303.5389937389
  0
SPLINE
  5
C7
330
1F
100
AcDbEntity
  8
0
  6
Continuous
 62
     7
370
    15
100
AcDbSpline
210
0.0
220
0.0
230
1.0
 70
     8
 71
     3
 72
    27
 73
    23
 74
     0
 42
0.000000001
 43
0.00000001
 40
0.0
 40
0.0
 40
0.0
 40
0.0
 40
0.0659735702910813
 40
0.1082952230326797
 40
0.1438476379623052
 40
0.1759621024725138
 40
0.2071390505872402
 40
0.2389417311331459
 40
0.2498612960436302
 40
0.2609839469428024
 40
0.2723311692310569
 40
0.2870924364631913
 40
0.3177918106828519
 40
0.3553132651013895
 40
0.3996568001287957
 40
0.4508224160110649
 40
0.5088101129073723
 40
0.5736198909266226
 40
0.6452517501466098
 40
0.7237056906248298
 40
0.8089817124049832
 40
0.967654618228134
 40
0.967654618228134
 40
0.967654618228134
 40
0.967654618228134
 10
9.986636751773931
 20
-12.74614226494112
 30
0.0
 10
9.928388066711278
 20
-12.79308784695611
 30
0.0
 10
9.849867864362295
 20
-12.89386448264947
 30
0.0
 10
9.805820815347792
 20
-13.05360756573674
 30
0.0
 10
9.80234485246616
 20
-13.17937918023845
 30
0.0
 10
9.819002058535153
 20
-13.29088672051434
 30
0.0
 10
9.84882065414526
 20
-13.39499293847484
 30
0.0
 10
9.880094495334642
 20
-13.4730716713703
 30
0.0
 10
9.905936108762363
 20
-13.52854036417499
 30
0.0
 10
9.92281810080896
 20
-13.56252983148197
 30
0.0
 10
9.942759552942647
 20
-13.59984893264621
 30
0.0
 10
9.973504409355
 20
-13.65661768351541
 30
0.0
 10
10.01543731023453
 20
-13.74111868497359
 30
0.0
 10
10.06825385925543
 20
-13.85765395042978
 30
0.0
 10
10.12545550494984
 20
-13.99763482189267
 30
0.0
 10
10.18544147720316
 20
-14.16147654681912
 30
0.0
 10
10.24647077285693
 20
-14.34956614754229
 30
0.0
 10
10.3068175733856
 20
-14.56217381335447
 30
0.0
 10
10.36472561928545
 20
-14.79948092089114
 30
0.0
 10
10.41842995557411
 20
-15.06156918631468
 30
0.0
 10
10.47857281555945
 20
-15.42307443165585
 30
0.0
 10
10.51003246302706
 20
-15.69867477912668
 30
0.0
 10
10.52520833226471
 20
-15.87836545625576
 30
0.0
  0
ARC
  5
C8
330
1F
100
AcDbEntity
  8
0
  6
Continuous
 62
     7
370
    15
100
AcDbCircle
 10
0.0
 20
0.0
 30
0.0
 40
16.1925
100
AcDbArc
 50
308.0787948623
 51
309.0640622805
  0
SPLINE
  5
C9
330
1F
100
AcDbEntity
  8
0
  6
Continuous
 62
     7
370
    15
100
AcDbSpline
210
0.0
220
0.0
230
1.0
 70
     8
 71
     3
 72
    27
 73
    23
 74
     0
 42
0.000000001
 43
0.00000001
 40
0.0323453817718653
 40
0.0323453817718653
 40
0.0323453817718653
 40
0.0323453817718653
 40
0.1910182875950168
 40
0.2762943093751701
 40
0.3547482498533902
 40
0.4263801090733774
 40
0.4911898870926277
 40
0.5491775839889351
 40
0.6003431998712043
 40
0.6446867348986105
 40
0.6822081893171481
 40
0.7129075635368087
 40
0.7276688307689431
 40
0.7390160530571976
 40
0.7501387039563698
 40
0.7610582688668541
 40
0.7928609494127598
 40
0.8240378975274862
 40
0.8561523620376948
 40
0.8917047769673203
 40
0.9340264297089187
 40
1.0
 40
1.0
 40
1.0
 40
1.0
 10
13.13818249495403
 20
-13.79458809567268
 30
0.0
 10
12.96637398685836
 20
-13.73980777986336
 30
0.0
 10
12.70468394563841
 20
-13.64781004472201
 30
0.0
 10
12.36562543692985
 20
-13.50873260698062
 30
0.0
 10
12.12205861058153
 20
-13.39805462492668
 30
0.0
 10
11.90358704014205
 20
-13.28879265543559
 30
0.0
 10
11.70973831881279
 20
-13.18264921882663
 30
0.0
 10
11.53994481294416
 20
-13.08129618141265
 30
0.0
 10
11.3935590767034
 20
-12.98635596907197
 30
0.0
 10
11.2698163815664
 20
-12.89943981380787
 30
0.0
 10
11.16795568633608
 20
-12.82201594983417
 30
0.0
 10
11.09490424967436
 20
-12.76233115256328
 30
0.0
 10
11.04640018407549
 20
-12.71972489842793
 30
0.0
 10
11.01445414124615
 20
-12.6919791388879
 30
0.0
 10
10.98507345748564
 20
-12.66795704561863
 30
0.0
 10
10.93674578057296
 20
-12.63042039006392
 30
0.0
 10
10.86758372887523
 20
-12.58255649680126
 30
0.0
 10
10.77272293289825
 20
-12.53031970278772
 30
0.0
 10
10.6677176965161
 20
-12.48926736564679
 30
0.0
 10
10.54432596447138
 20
-12.46466936175775
 30
0.0
 10
10.37878658350689
 20
-12.47206587924966
 30
0.0
 10
10.26306423971256
 20
-12.52619250509446
 30
0.0
 10
10.20433412965067
 20
-12.57253439925485
 30
0.0
  0
ARC
  5
CA
330
1F
100
AcDbEntity
  8
0
  6
Continuous
 62
     7
370
    15
100
AcDbCircle
 10
0.0
 20
0.0
 30
0.0
 40
19.04999999999988
100
AcDbArc
 50
313.6038634039
 51
316.3961365961
  0
SPLINE
  5
CB
330
1F
100
AcDbEntity
  8
0
  6
Continuous
 62
     7
370
    15
100
AcDbSpline
210
0.0
220
0.0
230
1.0
 70
     8
 71
     3
 72
    27
 73
    23
 74
     0
 42
0.000000001
 43
0.00000001
 40
0.0
 40
0.0
 40
0.0
 40
0.0
 40
0.0659735702910813
 40
0.1082952230326797
 40
0.1438476379623052
 40
0.1759621024725138
 40
0.2071390505872402
 40
0.2389417311331459
 40
0.2498612960436302
 40
0.2609839469428024
 40
0.2723311692310569
 40
0.2870924364631913
 40
0.3177918106828519
 40
0.3553132651013895
 40
0.3996568001287957
 40
0.4508224160110649
 40
0.5088101129073723
 40
0.5736198909266226
 40
0.6452517501466098
 40
0.7237056906248298
 40
0.8089817124049832
 40
0.9676546182281327
 40
0.9676546182281327
 40
0.9676546182281327
 40
0.9676546182281327
 10
12.57253439926013
 20
-10.20433412964417
 30
0.0
 10
12.52619250509977
 20
-10.26306423970607
 30
0.0
 10
12.47206587925504
 20
-10.37878658350044
 30
0.0
 10
12.4646693617632
 20
-10.54432596446493
 30
0.0
 10
12.4892673656523
 20
-10.66771769650963
 30
0.0
 10
12.5303197027933
 20
-10.77272293289177
 30
0.0
 10
12.58255649680689
 20
-10.86758372886872
 30
0.0
 10
12.63042039006958
 20
-10.93674578056642
 30
0.0
 10
12.66795704562431
 20
-10.98507345747909
 30
0.0
 10
12.6919791388936
 20
-11.01445414123959
 30
0.0
 10
12.71972489843365
 20
-11.04640018406891
 30
0.0
 10
12.76233115256902
 20
-11.09490424966776
 30
0.0
 10
12.82201594983995
 20
-11.16795568632945
 30
0.0
 10
12.8994398138137
 20
-11.26981638155972
 30
0.0
 10
12.98635596907786
 20
-11.39355907669668
 30
0.0
 10
13.08129618141863
 20
-11.5399448129374
 30
0.0
 10
13.18264921883269
 20
-11.70973831880597
 30
0.0
 10
13.28879265544175
 20
-11.90358704013518
 30
0.0
 10
13.39805462493296
 20
-12.12205861057459
 30
0.0
 10
13.50873260698702
 20
-12.36562543692285
 30
0.0
 10
13.64781004472859
 20
-12.70468394563135
 30
0.0
 10
13.73980777987007
 20
-12.96637398685125
 30
0.0
 10
13.79458809567948
 20
-13.13818249494689
 30
0.0
  0
ARC
  5
CC
330
1F
100
AcDbEntity
  8
0
  6
Continuous
 62
     7
370
    15
100
AcDbCircle
 10
0.0
 20
0.0
 30
0.0
 40
16.1925
100
AcDbArc
 50
320.9359377195
 51
321.9212051377
  0
SPLINE
  5
CD
330
1F
100
AcDbEntity
  8
0
  6
Continuous
 62
     7
370
    15
100
AcDbSpline
210
0.0
220
0.0
230
1.0
 70
     8
 71
     3
 72
    27
 73
    23
 74
     0
 42
0.000000001
 43
0.00000001
 40
0.0323453817718665
 40
0.0323453817718665
 40
0.0323453817718665
 40
0.0323453817718665
 40
0.1910182875950168
 40
0.2762943093751701
 40
0.3547482498533902
 40
0.4263801090733774
 40
0.4911898870926277
 40
0.5491775839889351
 40
0.6003431998712043
 40
0.6446867348986105
 40
0.6822081893171481
 40
0.7129075635368087
 40
0.7276688307689431
 40
0.7390160530571976
 40
0.7501387039563698
 40
0.7610582688668541
 40
0.7928609494127598
 40
0.8240378975274862
 40
0.8561523620376948
 40
0.8917047769673203
 40
0.9340264297089187
 40
1.0
 40
1.0
 40
1.0
 40
1.0
 10
15.87836545626121
 20
-10.52520833225649
 30
0.0
 10
15.69867477913212
 20
-10.51003246301894
 30
0.0
 10
15.42307443166126
 20
-10.47857281555146
 30
0.0
 10
15.06156918632007
 20
-10.41842995556632
 30
0.0
 10
14.79948092089651
 20
-10.36472561927779
 30
0.0
 10
14.5621738133598
 20
-10.30681757337806
 30
0.0
 10
14.34956614754759
 20
-10.24647077284951
 30
0.0
 10
14.16147654682439
 20
-10.18544147719582
 30
0.0
 10
13.99763482189792
 20
-10.1254555049426
 30
0.0
 10
13.85765395043499
 20
-10.06825385924826
 30
0.0
 10
13.74111868497877
 20
-10.01543731022742
 30
0.0
 10
13.65661768352057
 20
-9.973504409347933
 30
0.0
 10
13.59984893265135
 20
-9.942759552935613
 30
0.0
 10
13.5625298314871
 20
-9.922818100801942
 30
0.0
 10
13.52854036418012
 20
-9.90593610875536
 30
0.0
 10
13.47307167137541
 20
-9.880094495327674
 30
0.0
 10
13.39499293847994
 20
-9.84882065413833
 30
0.0
 10
13.29088672051942
 20
-9.819002058528277
 30
0.0
 10
13.17937918024352
 20
-9.802344852459342
 30
0.0
 10
13.05360756574182
 20
-9.805820815341038
 30
0.0
 10
12.89386448265456
 20
-9.849867864355621
 30
0.0
 10
12.79308784696125
 20
-9.928388066704663
 30
0.0
 10
12.74614226494629
 20
-9.986636751767335
 30
0.0
  0
ARC
  5
CE
330
1F
100
AcDbEntity
  8
0
  6
Continuous
 62
     7
370
    15
100
AcDbCircle
 10
0.0
 20
0.0
 30
0.0
 40
19.04999999999988
100
AcDbArc
 50
326.4610062611
 51
329.2532794532
  0
SPLINE
  5
CF
330
1F
100
AcDbEntity
  8
0
  6
Continuous
 62
     7
370
    15
100
AcDbSpline
210
0.0
220
0.0
230
1.0
 70
     8
 71
     3
 72
    27
 73
    23
 74
     0
 42
0.000000001
 43
0.00000001
 40
0.0
 40
0.0
 40
0.0
 40
0.0
 40
0.0659735702910813
 40
0.1082952230326797
 40
0.1438476379623052
 40
0.1759621024725138
 40
0.2071390505872402
 40
0.2389417311331459
 40
0.2498612960436302
 40
0.2609839469428024
 40
0.2723311692310569
 40
0.2870924364631913
 40
0.3177918106828519
 40
0.3553132651013895
 40
0.3996568001287957
 40
0.4508224160110649
 40
0.5088101129073723
 40
0.5736198909266226
 40
0.6452517501466098
 40
0.7237056906248298
 40
0.8089817124049832
 40
0.9676546182281337
 40
0.9676546182281337
 40
0.9676546182281337
 40
0.9676546182281337
 10
14.52799267363565
 20
-7.15083807149825
 30
0.0
 10
14.49588134645767
 20
-7.218407736652984
 30
0.0
 10
14.46886243215016
 20
-7.343272987016083
 30
0.0
 10
14.4984873384532
 20
-7.506307830063976
 30
0.0
 10
14.54992586248572
 20
-7.621132302967951
 30
0.0
 10
14.61331479509483
 20
-7.714369834440439
 30
0.0
 10
14.6853504165382
 20
-7.795228492019366
 30
0.0
 10
14.7474042664038
 20
-7.852005788451619
 30
0.0
 10
14.79475371943661
 20
-7.890769097953044
 30
0.0
 10
14.82471134586453
 20
-7.914067728000278
 30
0.0
 10
14.8588701245714
 20
-7.939038804512161
 30
0.0
 10
14.91120132093922
 20
-7.976845988456195
 30
0.0
 10
14.98564516964437
 20
-8.03478475625093
 30
0.0
 10
15.08379399273744
 20
-8.116863160663227
 30
0.0
 10
15.19606631861614
 20
-8.218162704035576
 30
0.0
 10
15.3212000723618
 20
-8.33975205952186
 30
0.0
 10
15.45779458702677
 20
-8.48273531515565
 30
0.0
 10
15.60441218458826
 20
-8.648104707672669
 30
0.0
 10
15.75954922628228
 20
-8.836785664215164
 30
0.0
 10
15.92165099793053
 20
-9.049617593768554
 30
0.0
 10
16.13268908996318
 20
-9.349227556432705
 30
0.0
 10
16.28061176218943
 20
-9.583885060012443
 30
0.0
 10
16.37224961079325
 20
-9.739196203068863
 30
0.0
  0
ARC
  5
D0
330
1F
100
AcDbEntity
  8
0
  6
Continuous
 62
     7
370
    15
100
AcDbCircle
 10
0.0
 20
0.0
 30
0.0
 40
16.1925
100
AcDbArc
 50
333.7930805766
 51
334.7783479948
  0
SPLINE
  5
D1
330
1F
100
AcDbEntity
  8
0
  6
Continuous
 62
     7
370
    15
100
AcDbSpline
210
0.0
220
0.0
230
1.0
 70
     8
 71
     3
 72
    27
 73
    23
 74
     0
 42
0.000000001
 43
0.00000001
 40
0.0323453817718666
 40
0.0323453817718666
 40
0.0323453817718666
 40
0.0323453817718666
 40
0.1910182875950168
 40
0.2762943093751701
 40
0.3547482498533902
 40
0.4263801090733774
 40
0.4911898870926277
 40
0.5491775839889351
 40
0.6003431998712043
 40
0.6446867348986105
 40
0.6822081893171481
 40
0.7129075635368087
 40
0.7276688307689431
 40
0.7390160530571976
 40
0.7501387039563698
 40
0.7610582688668541
 40
0.7928609494127598
 40
0.8240378975274862
 40
0.8561523620376948
 40
0.8917047769673203
 40
0.9340264297089187
 40
1.0
 40
1.0
 40
1.0
 40
1.0
 10
17.82234087131132
 20
-6.728050673618377
 30
0.0
 10
17.64377846602298
 20
-6.753240232405076
 30
0.0
 10
17.36808756453023
 20
-6.783896190699537
 30
0.0
 10
17.00226296507227
 20
-6.805703722605009
 30
0.0
 10
16.73479546058709
 20
-6.811665991753169
 30
0.0
 10
16.49055238523323
 20
-6.808015620669159
 30
0.0
 10
16.26984681107419
 20
-6.796491496785816
 30
0.0
 10
16.07289271347045
 20
-6.77884620661264
 30
0.0
 10
15.89981070808955
 20
-6.756822421575259
 30
0.0
 10
15.75061088570507
 20
-6.732203614819067
 30
0.0
 10
15.62524461484182
 20
-6.7066428230617
 30
0.0
 10
15.53353128164569
 20
-6.684564509320255
 30
0.0
 10
15.47134446772038
 20
-6.667222726110813
 30
0.0
 10
15.43052364378458
 20
-6.656085529061741
 30
0.0
 10
15.39362976674957
 20
-6.647190171812125
 30
0.0
 10
15.33380148992715
 20
-6.634339406913898
 30
0.0
 10
15.25072126952971
 20
-6.621223818783293
 30
0.0
 10
15.1425899500639
 20
-6.615318650472225
 30
0.0
 10
15.03017155957862
 20
-6.623891837342024
 30
0.0
 10
14.90832677654758
 20
-6.655267467701212
 30
0.0
 10
14.76239017655257
 20
-6.733756345276409
 30
0.0
 10
14.68161261028054
 20
-6.832732793312106
 30
0.0
 10
14.6488056038224
 20
-6.899967436982687
 30
0.0
  0
ARC
  5
D2
330
1F
100
AcDbEntity
  8
0
  6
Continuous
 62
     7
370
    15
100
AcDbCircle
 10
0.0
 20
0.0
 30
0.0
 40
19.04999999999988
100
AcDbArc
 50
339.3181491182
 51
342.1104223104
  0
SPLINE
  5
D3
330
1F
100
AcDbEntity
  8
0
  6
Continuous
 62
     7
370
    15
100
AcDbSpline
210
0.0
220
0.0
230
1.0
 70
     8
 71
     3
 72
    11
 73
     7
 74
     0
 42
0.000000001
 43
0.00000001
 40
0.5953402501990833
 40
0.5953402501990833
 40
0.5953402501990833
 40
0.5953402501990833
 40
0.6452517501466098
 40
0.7237056906248298
 40
0.8089817124049832
 40
0.9676546182281343
 40
0.9676546182281343
 40
0.9676546182281343
 40
0.9676546182281343
 10
17.18967289337735
 20
-5.000000000000001
 30
0.0
 10
17.23481624249885
 20
-5.034346703799716
 30
0.0
 10
17.34974928918915
 20
-5.124219313925976
 30
0.0
 10
17.53619132481302
 20
-5.279824136550426
 30
0.0
 10
17.80860773998389
 20
-5.524961858579993
 30
0.0
 10
18.00503788883821
 20
-5.720820117445683
 30
0.0
 10
18.12893816586111
 20
-5.85184594622718
 30
0.0
  0
LINE
  5
D4
330
1F
100
AcDbEntity
  8
0
  6
Continuous
 62
     7
370
    15
100
AcDbLine
 10
17.1896728934
 20
-3.0
 30
0.0
 11
17.1896728934
 21
-5.0
 31
0.0
  0
CIRCLE
  5
D5
330
1F
100
AcDbEntity
  8
0
  6
Continuous
 62
     7
370
    15
100
AcDbCircle
 10
0.0
 20
30.8993473504
 30
0.0
 40
1.0
  0
CIRCLE
  5
D6
330
1F
100
AcDbEntity
  8
0
  6
Continuous
 62
     7
370
    15
100
AcDbCircle
 10
0.0
 20
0.0
 30
0.0
 40
1.5
  0
CIRCLE
  5
D7
330
1F
100
AcDbEntity
  8
0
  6
Continuous
 62
     7
370
    15
100
AcDbCircle
 10
50.0
 20
0.0
 30
0.0
 40
1.500000000000007
  0
ENDSEC
  0
SECTION
  2
OBJECTS
  0
DICTIONARY
  5
C
330
0
100
AcDbDictionary
281
     1
  3
ACAD_GROUP
350
D
  3
ACAD_LAYOUT
350
1A
  3
ACAD_MLINESTYLE
350
17
  3
ACAD_PLOTSETTINGS
350
19
  3
ACAD_PLOTSTYLENAME
350
E
  3
ACAD_SCALELIST
350
47
  0
DICTIONARY
  5
D
102
{ACAD_REACTORS
330
C
102
}
330
C
100
AcDbDictionary
281
     1
  0
DICTIONARY
  5
1A
102
{ACAD_REACTORS
330
C
102
}
330
C
100
AcDbDictionary
281
     1
  3
Layout1
350
1E
  3
Layout2
350
26
  3
Model
350
22
  0
DICTIONARY
  5
17
102
{ACAD_REACTORS
330
C
102
}
330
C
100
AcDbDictionary
281
     1
  3
Standard
350
18
  0
DICTIONARY
  5
19
102
{ACAD_REACTORS
330
C
102
}
330
C
100
AcDbDictionary
281
     1
  0
ACDBDICTIONARYWDFLT
  5
E
102
{ACAD_REACTORS
330
C
102
}
330
C
100
AcDbDictionary
281
     1
  3
Normal
350
F
100
AcDbDictionaryWithDefault
340
F
  0
DICTIONARY
  5
47
102
{ACAD_REACTORS
330
C
102
}
330
C
100
AcDbDictionary
281
     1
  3
A0
350
48
  3
A1
350
49
  3
A2
350
4A
  3
A3
350
4B
  3
A4
350
4C
  3
A5
350
4D
  3
A6
350
4E
  3
A7
350
4F
  3
A8
350
50
  3
A9
350
51
  3
B0
350
52
  3
B1
350
53
  3
B2
350
54
  3
B3
350
55
  3
B4
350
56
  3
B5
350
57
  3
B6
350
58
  3
B7
350
59
  3
B8
350
5A
  3
B9
350
5B
  3
C0
350
5C
  3
C1
350
5D
  3
C2
350
5E
  3
C3
350
5F
  3
C4
350
60
  3
C5
350
61
  3
C6
350
62
  3
C7
350
63
  3
C8
350
64
  3
C9
350
65
  3
D0
350
66
  3
D1
350
67
  3
D2
350
68
  0
LAYOUT
  5
1E
102
{ACAD_REACTORS
330
1A
102
}
330
1A
100
AcDbPlotSettings
  1

  2
none_device
  4

  6

 40
0.0
 41
0.0
 42
0.0
 43
0.0
 44
0.0
 45
0.0
 46
0.0
 47
0.0
 48
0.0
 49
0.0
140
0.0
141
0.0
142
1.0
143
1.0
 70
   688
 72
     1
 73
     0
 74
     5
  7

 75
    16
147
1.0
148
0.0
149
0.0
100
AcDbLayout
  1
Layout1
 70
     1
 71
     1
 10
0.0
 20
0.0
 11
420.0
 21
297.0
 12
0.0
 22
0.0
 32
0.0
 14
1.0000000000E+20
 24
1.0000000000E+20
 34
1.0000000000E+20
 15
-1.0000000000E+20
 25
-1.0000000000E+20
 35
-1.0000000000E+20
146
0.0
 13
0.0
 23
0.0
 33
0.0
 16
1.0
 26
0.0
 36
0.0
 17
0.0
 27
1.0
 37
0.0
 76
     0
330
1B
  0
LAYOUT
  5
26
102
{ACAD_REACTORS
330
1A
102
}
330
1A
100
AcDbPlotSettings
  1

  2
none_device
  4

  6

 40
0.0
 41
0.0
 42
0.0
 43
0.0
 44
0.0
 45
0.0
 46
0.0
 47
0.0
 48
0.0
 49
0.0
140
0.0
141
0.0
142
1.0
143
1.0
 70
   688
 72
     1
 73
     0
 74
     5
  7

 75
    16
147
1.0
148
0.0
149
0.0
100
AcDbLayout
  1
Layout2
 70
     1
 71
     2
 10
0.0
 20
0.0
 11
0.0
 21
0.0
 12
0.0
 22
0.0
 32
0.0
 14
0.0
 24
0.0
 34
0.0
 15
0.0
 25
0.0
 35
0.0
146
0.0
 13
0.0
 23
0.0
 33
0.0
 16
1.0
 26
0.0
 36
0.0
 17
0.0
 27
1.0
 37
0.0
 76
     0
330
23
  0
LAYOUT
  5
22
102
{ACAD_REACTORS
330
1A
102
}
330
1A
100
AcDbPlotSettings
  1

  2
none_device
  4
ANSI_A_(11.00_x_8.50_Inches)
  6

 40
6.35
 41
19.05
 42
6.35000508
 43
19.05000254
 44
279.4
 45
215.9
 46
66.0023325269
 47
57.2619875974
 48
0.0
 49
0.0
140
0.0
141
0.0
142
0.1472087795
143
1.0
 70
  1696
 72
     0
 73
     0
 74
     0
  7

 75
     0
147
0.0179189148
148
-1300.4909072572
149
0.0
100
AcDbLayout
  1
Model
 70
     1
 71
     0
 10
0.0
 20
0.0
 11
420.0
 21
297.0
 12
0.0
 22
0.0
 32
0.0
 14
-18.9765660614
 24
-18.9765660614
 34
0.0
 15
55.0
 25
35.8993473504
 35
0.0
146
0.0
 13
0.0
 23
0.0
 33
0.0
 16
1.0
 26
0.0
 36
0.0
 17
0.0
 27
1.0
 37
0.0
 76
     0
330
1F
331
29
  0
MLINESTYLE
  5
18
102
{ACAD_REACTORS
330
17
102
}
330
17
100
AcDbMlineStyle
  2
Standard
 70
     0
  3

 62
   256
 51
90.0
 52
90.0
 71
     2
 49
0.5
 62
   256
  6
BYLAYER
 49
-0.5
 62
   256
  6
BYLAYER
  0
ACDBPLACEHOLDER
  5
F
102
{ACAD_REACTORS
330
E
102
}
330
E
  0
SCALE
  5
48
102
{ACAD_REACTORS
330
47
102
}
330
47
100
AcDbScale
 70
     0
300
1:1
140
1.0
141
1.0
290
     1
  0
SCALE
  5
49
102
{ACAD_REACTORS
330
47
102
}
330
47
100
AcDbScale
 70
     0
300
1:2
140
1.0
141
2.0
290
     0
  0
SCALE
  5
4A
102
{ACAD_REACTORS
330
47
102
}
330
47
100
AcDbScale
 70
     0
300
1:4
140
1.0
141
4.0
290
     0
  0
SCALE
  5
4B
102
{ACAD_REACTORS
330
47
102
}
330
47
100
AcDbScale
 70
     0
300
1:5
140
1.0
141
5.0
290
     0
  0
SCALE
  5
4C
102
{ACAD_REACTORS
330
47
102
}
330
47
100
AcDbScale
 70
     0
300
1:8
140
1.0
141
8.0
290
     0
  0
SCALE
  5
4D
102
{ACAD_REACTORS
330
47
102
}
330
47
100
AcDbScale
 70
     0
300
1:10
140
1.0
141
10.0
290
     0
  0
SCALE
  5
4E
102
{ACAD_REACTORS
330
47
102
}
330
47
100
AcDbScale
 70
     0
300
1:16
140
1.0
141
16.0
290
     0
  0
SCALE
  5
4F
102
{ACAD_REACTORS
330
47
102
}
330
47
100
AcDbScale
 70
     0
300
1:20
140
1.0
141
20.0
290
     0
  0
SCALE
  5
50
102
{ACAD_REACTORS
330
47
102
}
330
47
100
AcDbScale
 70
     0
300
1:30
140
1.0
141
30.0
290
     0
  0
SCALE
  5
51
102
{ACAD_REACTORS
330
47
102
}
330
47
100
AcDbScale
 70
     0
300
1:40
140
1.0
141
40.0
290
     0
  0
SCALE
  5
52
102
{ACAD_REACTORS
330
47
102
}
330
47
100
AcDbScale
 70
     0
300
1:50
140
1.0
141
50.0
290
     0
  0
SCALE
  5
53
102
{ACAD_REACTORS
330
47
102
}
330
47
100
AcDbScale
 70
     0
300
1:100
140
1.0
141
100.0
290
     0
  0
SCALE
  5
54
102
{ACAD_REACTORS
330
47
102
}
330
47
100
AcDbScale
 70
     0
300
2:1
140
2.0
141
1.0
290
     0
  0
SCALE
  5
55
102
{ACAD_REACTORS
330
47
102
}
330
47
100
AcDbScale
 70
     0
300
4:1
140
4.0
141
1.0
290
     0
  0
SCALE
  5
56
102
{ACAD_REACTORS
330
47
102
}
330
47
100
AcDbScale
 70
     0
300
8:1
140
8.0
141
1.0
290
     0
  0
SCALE
  5
57
102
{ACAD_REACTORS
330
47
102
}
330
47
100
AcDbScale
 70
     0
300
10:1
140
10.0
141
1.0
290
     0
  0
SCALE
  5
58
102
{ACAD_REACTORS
330
47
102
}
330
47
100
AcDbScale
 70
     0
300
100:1
140
100.0
141
1.0
290
     0
  0
SCALE
  5
59
102
{ACAD_REACTORS
330
47
102
}
330
47
100
AcDbScale
 70
     0
300
1/128" = 1'-0"
140
0.0078125
141
12.0
290
     0
  0
SCALE
  5
5A
102
{ACAD_REACTORS
330
47
102
}
330
47
100
AcDbScale
 70
     0
300
1/64" = 1'-0"
140
0.015625
141
12.0
290
     0
  0
SCALE
  5
5B
102
{ACAD_REACTORS
330
47
102
}
330
47
100
AcDbScale
 70
     0
300
1/32" = 1'-0"
140
0.03125
141
12.0
290
     0
  0
SCALE
  5
5C
102
{ACAD_REACTORS
330
47
102
}
330
47
100
AcDbScale
 70
     0
300
1/16" = 1'-0"
140
0.0625
141
12.0
290
     0
  0
SCALE
  5
5D
102
{ACAD_REACTORS
330
47
102
}
330
47
100
AcDbScale
 70
     0
300
3/32" = 1'-0"
140
0.09375
141
12.0
290
     0
  0
SCALE
  5
5E
102
{ACAD_REACTORS
330
47
102
}
330
47
100
AcDbScale
 70
     0
300
1/8" = 1'-0"
140
0.125
141
12.0
290
     0
  0
SCALE
  5
5F
102
{ACAD_REACTORS
330
47
102
}
330
47
100
AcDbScale
 70
     0
300
3/16" = 1'-0"
140
0.1875
141
12.0
290
     0
  0
SCALE
  5
60
102
{ACAD_REACTORS
330
47
102
}
330
47
100
AcDbScale
 70
     0
300
1/4" = 1'-0"
140
0.25
141
12.0
290
     0
  0
SCALE
  5
61
102
{ACAD_REACTORS
330
47
102
}
330
47
100
AcDbScale
 70
     0
300
3/8" = 1'-0"
140
0.375
141
12.0
290
     0
  0
SCALE
  5
62
102
{ACAD_REACTORS
330
47
102
}
330
47
100
AcDbScale
 70
     0
300
1/2" = 1'-0"
140
0.5
141
12.0
290
     0
  0
SCALE
  5
63
102
{ACAD_REACTORS
330
47
102
}
330
47
100
AcDbScale
 70
     0
300
3/4" = 1'-0"
140
0.75
141
12.0
290
     0
  0
SCALE
  5
64
102
{ACAD_REACTORS
330
47
102
}
330
47
100
AcDbScale
 70
     0
300
1" = 1'-0"
140
1.0
141
12.0
290
     0
  0
SCALE
  5
65
102
{ACAD_REACTORS
330
47
102
}
330
47
100
AcDbScale
 70
     0
300
1-1/2" = 1'-0"
140
1.5
141
12.0
290
     0
  0
SCALE
  5
66
102
{ACAD_REACTORS
330
47
102
}
330
47
100
AcDbScale
 70
     0
300
3" = 1'-0"
140
3.0
141
12.0
290
     0
  0
SCALE
  5
67
102
{ACAD_REACTORS
330
47
102
}
330
47
100
AcDbScale
 70
     0
300
6" = 1'-0"
140
6.0
141
12.0
290
     0
  0
SCALE
  5
68
102
{ACAD_REACTORS
330
47
102
}
330
47
100
AcDbScale
 70
     0
300
1'-0" = 1'-0"
140
12.0
141
12.0
290
     0
  0
ENDSEC
  0
EOF
